<?xml version="1.0" encoding="UTF-8"?>
<svg id="Layer_1" data-name="Layer 1" xmlns="http://www.w3.org/2000/svg" xmlns:xlink="http://www.w3.org/1999/xlink" viewBox="0 0 9396.32 6075.11">
  <defs>
    <style>
      .cls-1 {
        stroke-linecap: round;
      }

      .cls-1, .cls-2 {
        fill: none;
      }

      .cls-1, .cls-2, .cls-3 {
        stroke-miterlimit: 10;
      }

      .cls-1, .cls-3 {
        stroke: #2e3192;
      }

      .cls-4 {
        fill: #231f20;
        font-family: MyriadPro-Regular, 'Myriad Pro';
        font-size: 413.85px;
      }

      .cls-2 {
        stroke: #000;
      }

      .cls-5 {
        opacity: .9;
      }

      .cls-6 {
        fill: #e0f3fc;
      }

      .cls-6, .cls-7 {
        stroke-width: 0px;
      }

      .cls-7 {
        fill: #bcc9ce;
      }

      .cls-3 {
        fill: url(#linear-gradient);
      }
    </style>
    <linearGradient id="linear-gradient" x1="4976.94" y1="411.83" x2="4976.94" y2="6074.61" gradientUnits="userSpaceOnUse">
      <stop offset="0" stop-color="#2e3192"/>
      <stop offset=".35" stop-color="#0056a7"/>
      <stop offset="1" stop-color="#c2d6ee"/>
    </linearGradient>
  </defs>
  <rect class="cls-6" x="567.53" y="191.2" width="8828.79" height="5882.16"/>
  <rect class="cls-7" x="567.53" y="4584.91" width="8828.79" height="37.69"/>
  <rect class="cls-7" x="562.55" y="3114.06" width="8828.79" height="37.69"/>
  <rect class="cls-7" x="562.55" y="1643.21" width="8828.79" height="37.69"/>
  <g class="cls-5">
    <polygon class="cls-3" points="8973.76 1662.05 8854.45 1367.88 8735.15 1367.88 8615.84 1294.34 8496.53 1073.71 8377.22 1073.71 8257.91 1073.71 8138.61 1073.71 8019.3 926.63 7899.99 706 7780.68 1000.17 7661.37 632.46 7542.07 411.83 7422.76 632.46 7303.45 632.46 7184.14 485.37 7064.83 485.37 6945.53 632.46 6826.22 485.37 6706.91 632.46 6587.6 558.91 6468.29 632.46 6348.99 632.46 6229.68 558.91 6110.37 1073.71 5991.06 1147.25 5871.75 1441.42 5752.45 1662.05 5633.14 1735.59 5513.83 1441.42 5394.52 1588.51 5275.21 1294.34 5155.91 1735.59 5036.6 1441.42 4917.29 1809.14 4797.98 1514.97 4678.67 1882.68 4559.37 2029.76 4440.06 1809.14 4320.75 1809.14 4201.44 1294.34 4082.13 1662.05 3962.83 1514.97 3843.52 1441.42 3724.21 1956.22 3604.9 2471.02 3485.6 1882.68 3366.29 2029.76 3246.98 2397.48 3127.67 2250.39 3008.36 3279.99 2889.06 3500.62 2769.75 3794.79 2650.44 3721.24 2531.13 4309.58 2411.82 4309.58 2292.52 4530.21 2173.21 4677.3 2053.9 4824.38 1934.59 4824.38 1815.28 5118.55 1695.98 5192.09 1576.67 5118.55 1457.36 4971.47 1338.05 5118.55 1218.74 5412.72 1099.44 5412.72 980.13 5412.72 860.82 5412.72 741.51 5633.35 622.2 5192.09 562.55 6074.61 9391.34 6074.61 9331.69 2029.76 9212.38 1956.22 9093.07 1882.68 8973.76 1662.05"/>
  </g>
  <g>
    <line class="cls-1" x1="741.51" y1="5633.35" x2="622.2" y2="5192.09"/>
    <line class="cls-1" x1="860.82" y1="5412.72" x2="741.51" y2="5633.35"/>
    <line class="cls-1" x1="980.13" y1="5412.72" x2="860.82" y2="5412.72"/>
    <line class="cls-1" x1="1099.44" y1="5412.72" x2="980.13" y2="5412.72"/>
    <line class="cls-1" x1="1218.74" y1="5412.72" x2="1099.44" y2="5412.72"/>
    <line class="cls-1" x1="1338.05" y1="5118.55" x2="1218.74" y2="5412.72"/>
    <line class="cls-1" x1="1457.36" y1="4971.47" x2="1338.05" y2="5118.55"/>
    <line class="cls-1" x1="1576.67" y1="5118.55" x2="1457.36" y2="4971.47"/>
    <line class="cls-1" x1="1695.98" y1="5192.09" x2="1576.67" y2="5118.55"/>
    <line class="cls-1" x1="1815.28" y1="5118.55" x2="1695.98" y2="5192.09"/>
    <line class="cls-1" x1="1934.59" y1="4824.38" x2="1815.28" y2="5118.55"/>
    <line class="cls-1" x1="2053.9" y1="4824.38" x2="1934.59" y2="4824.38"/>
    <line class="cls-1" x1="2173.21" y1="4677.3" x2="2053.9" y2="4824.38"/>
    <line class="cls-1" x1="2292.52" y1="4530.21" x2="2173.21" y2="4677.3"/>
    <line class="cls-1" x1="2411.82" y1="4309.58" x2="2292.52" y2="4530.21"/>
    <line class="cls-1" x1="2531.13" y1="4309.58" x2="2411.82" y2="4309.58"/>
    <line class="cls-1" x1="2650.44" y1="3721.24" x2="2531.13" y2="4309.58"/>
    <line class="cls-1" x1="2769.75" y1="3794.79" x2="2650.44" y2="3721.24"/>
    <line class="cls-1" x1="2889.06" y1="3500.62" x2="2769.75" y2="3794.79"/>
    <line class="cls-1" x1="3008.36" y1="3279.99" x2="2889.06" y2="3500.62"/>
    <line class="cls-1" x1="3127.67" y1="2250.39" x2="3008.36" y2="3279.99"/>
    <line class="cls-1" x1="3246.98" y1="2397.48" x2="3127.67" y2="2250.39"/>
    <line class="cls-1" x1="3366.29" y1="2029.76" x2="3246.98" y2="2397.48"/>
    <line class="cls-1" x1="3485.6" y1="1882.68" x2="3366.29" y2="2029.76"/>
    <line class="cls-1" x1="3604.9" y1="2471.02" x2="3485.6" y2="1882.68"/>
    <line class="cls-1" x1="3724.21" y1="1956.22" x2="3604.9" y2="2471.02"/>
    <line class="cls-1" x1="3843.52" y1="1441.42" x2="3724.21" y2="1956.22"/>
    <line class="cls-1" x1="3962.83" y1="1514.97" x2="3843.52" y2="1441.42"/>
    <line class="cls-1" x1="4082.13" y1="1662.05" x2="3962.83" y2="1514.97"/>
    <line class="cls-1" x1="4201.44" y1="1294.34" x2="4082.13" y2="1662.05"/>
    <line class="cls-1" x1="4320.75" y1="1809.14" x2="4201.44" y2="1294.34"/>
    <line class="cls-1" x1="4440.06" y1="1809.14" x2="4320.75" y2="1809.14"/>
    <line class="cls-1" x1="4559.37" y1="2029.76" x2="4440.06" y2="1809.14"/>
    <line class="cls-1" x1="4678.67" y1="1882.68" x2="4559.37" y2="2029.76"/>
    <line class="cls-1" x1="4797.98" y1="1514.97" x2="4678.67" y2="1882.68"/>
    <line class="cls-1" x1="4917.29" y1="1809.14" x2="4797.98" y2="1514.97"/>
    <line class="cls-1" x1="5036.6" y1="1441.42" x2="4917.29" y2="1809.14"/>
    <line class="cls-1" x1="5155.91" y1="1735.59" x2="5036.6" y2="1441.42"/>
    <line class="cls-1" x1="5275.21" y1="1294.34" x2="5155.91" y2="1735.59"/>
    <line class="cls-1" x1="5394.52" y1="1588.51" x2="5275.21" y2="1294.34"/>
    <line class="cls-1" x1="5513.83" y1="1441.42" x2="5394.52" y2="1588.51"/>
    <line class="cls-1" x1="5633.14" y1="1735.59" x2="5513.83" y2="1441.42"/>
    <line class="cls-1" x1="5752.45" y1="1662.05" x2="5633.14" y2="1735.59"/>
    <line class="cls-1" x1="5871.75" y1="1441.42" x2="5752.45" y2="1662.05"/>
    <line class="cls-1" x1="5991.06" y1="1147.25" x2="5871.75" y2="1441.42"/>
    <line class="cls-1" x1="6110.37" y1="1073.71" x2="5991.06" y2="1147.25"/>
    <line class="cls-1" x1="6229.68" y1="558.91" x2="6110.37" y2="1073.71"/>
    <line class="cls-1" x1="6348.99" y1="632.46" x2="6229.68" y2="558.91"/>
    <line class="cls-1" x1="6468.29" y1="632.46" x2="6348.99" y2="632.46"/>
    <line class="cls-1" x1="6587.6" y1="558.91" x2="6468.29" y2="632.46"/>
    <line class="cls-1" x1="6706.91" y1="632.46" x2="6587.6" y2="558.91"/>
    <line class="cls-1" x1="6826.22" y1="485.37" x2="6706.91" y2="632.46"/>
    <line class="cls-1" x1="6945.53" y1="632.46" x2="6826.22" y2="485.37"/>
    <line class="cls-1" x1="7064.83" y1="485.37" x2="6945.53" y2="632.46"/>
    <line class="cls-1" x1="7184.14" y1="485.37" x2="7064.83" y2="485.37"/>
    <line class="cls-1" x1="7303.45" y1="632.46" x2="7184.14" y2="485.37"/>
    <line class="cls-1" x1="7422.76" y1="632.46" x2="7303.45" y2="632.46"/>
    <line class="cls-1" x1="7542.07" y1="411.83" x2="7422.76" y2="632.46"/>
    <line class="cls-1" x1="7661.37" y1="632.46" x2="7542.07" y2="411.83"/>
    <line class="cls-1" x1="7780.68" y1="1000.17" x2="7661.37" y2="632.46"/>
    <line class="cls-1" x1="7899.99" y1="706" x2="7780.68" y2="1000.17"/>
    <line class="cls-1" x1="8019.3" y1="926.63" x2="7899.99" y2="706"/>
    <line class="cls-1" x1="8138.61" y1="1073.71" x2="8019.3" y2="926.63"/>
    <line class="cls-1" x1="8257.91" y1="1073.71" x2="8138.61" y2="1073.71"/>
    <line class="cls-1" x1="8377.22" y1="1073.71" x2="8257.91" y2="1073.71"/>
    <line class="cls-1" x1="8496.53" y1="1073.71" x2="8377.22" y2="1073.71"/>
    <line class="cls-1" x1="8615.84" y1="1294.34" x2="8496.53" y2="1073.71"/>
    <line class="cls-1" x1="8735.15" y1="1367.88" x2="8615.84" y2="1294.34"/>
    <line class="cls-1" x1="8854.45" y1="1367.88" x2="8735.15" y2="1367.88"/>
    <line class="cls-1" x1="8973.76" y1="1662.05" x2="8854.45" y2="1367.88"/>
    <line class="cls-1" x1="9093.07" y1="1882.68" x2="8973.76" y2="1662.05"/>
    <line class="cls-1" x1="9212.38" y1="1956.22" x2="9093.07" y2="1882.68"/>
    <line class="cls-1" x1="9331.69" y1="2029.76" x2="9212.38" y2="1956.22"/>
  </g>
  <line class="cls-2" x1="562.55" y1="6074.61" x2="9391.34" y2="6074.61"/>
  <g>
    <line class="cls-2" x1="562.55" y1="6074.61" x2="562.55" y2="5927.52"/>
    <line class="cls-2" x1="681.86" y1="6074.61" x2="681.86" y2="5927.52"/>
    <line class="cls-2" x1="801.17" y1="6074.61" x2="801.17" y2="5927.52"/>
    <line class="cls-2" x1="920.47" y1="6074.61" x2="920.47" y2="5927.52"/>
    <line class="cls-2" x1="1039.78" y1="6074.61" x2="1039.78" y2="5927.52"/>
    <line class="cls-2" x1="1159.09" y1="6074.61" x2="1159.09" y2="5927.52"/>
    <line class="cls-2" x1="1278.4" y1="6074.61" x2="1278.4" y2="5927.52"/>
    <line class="cls-2" x1="1397.71" y1="6074.61" x2="1397.71" y2="5927.52"/>
    <line class="cls-2" x1="1517.01" y1="6074.61" x2="1517.01" y2="5927.52"/>
    <line class="cls-2" x1="1636.32" y1="6074.61" x2="1636.32" y2="5927.52"/>
    <line class="cls-2" x1="1755.63" y1="6074.61" x2="1755.63" y2="5927.52"/>
    <line class="cls-2" x1="1874.94" y1="6074.61" x2="1874.94" y2="5927.52"/>
    <line class="cls-2" x1="1994.25" y1="6074.61" x2="1994.25" y2="5927.52"/>
    <line class="cls-2" x1="2113.55" y1="6074.61" x2="2113.55" y2="5927.52"/>
    <line class="cls-2" x1="2232.86" y1="6074.61" x2="2232.86" y2="5927.52"/>
    <line class="cls-2" x1="2352.17" y1="6074.61" x2="2352.17" y2="5927.52"/>
    <line class="cls-2" x1="2471.48" y1="6074.61" x2="2471.48" y2="5927.52"/>
    <line class="cls-2" x1="2590.79" y1="6074.61" x2="2590.79" y2="5927.52"/>
    <line class="cls-2" x1="2710.09" y1="6074.61" x2="2710.09" y2="5927.52"/>
    <line class="cls-2" x1="2829.4" y1="6074.61" x2="2829.4" y2="5927.52"/>
    <line class="cls-2" x1="2948.71" y1="6074.61" x2="2948.71" y2="5927.52"/>
    <line class="cls-2" x1="3068.02" y1="6074.61" x2="3068.02" y2="5927.52"/>
    <line class="cls-2" x1="3187.33" y1="6074.61" x2="3187.33" y2="5927.52"/>
    <line class="cls-2" x1="3306.63" y1="6074.61" x2="3306.63" y2="5927.52"/>
    <line class="cls-2" x1="3425.94" y1="6074.61" x2="3425.94" y2="5927.52"/>
    <line class="cls-2" x1="3545.25" y1="6074.61" x2="3545.25" y2="5927.52"/>
    <line class="cls-2" x1="3664.56" y1="6074.61" x2="3664.56" y2="5927.52"/>
    <line class="cls-2" x1="3783.86" y1="6074.61" x2="3783.86" y2="5927.52"/>
    <line class="cls-2" x1="3903.17" y1="6074.61" x2="3903.17" y2="5927.52"/>
    <line class="cls-2" x1="4022.48" y1="6074.61" x2="4022.48" y2="5927.52"/>
    <line class="cls-2" x1="4141.79" y1="6074.61" x2="4141.79" y2="5927.52"/>
    <line class="cls-2" x1="4261.1" y1="6074.61" x2="4261.1" y2="5927.52"/>
    <line class="cls-2" x1="4380.4" y1="6074.61" x2="4380.4" y2="5927.52"/>
    <line class="cls-2" x1="4499.71" y1="6074.61" x2="4499.71" y2="5927.52"/>
    <line class="cls-2" x1="4619.02" y1="6074.61" x2="4619.02" y2="5927.52"/>
    <line class="cls-2" x1="4738.33" y1="6074.61" x2="4738.33" y2="5927.52"/>
    <line class="cls-2" x1="4857.64" y1="6074.61" x2="4857.64" y2="5927.52"/>
    <line class="cls-2" x1="4976.94" y1="6074.61" x2="4976.94" y2="5927.52"/>
    <line class="cls-2" x1="5096.25" y1="6074.61" x2="5096.25" y2="5927.52"/>
    <line class="cls-2" x1="5215.56" y1="6074.61" x2="5215.56" y2="5927.52"/>
    <line class="cls-2" x1="5334.87" y1="6074.61" x2="5334.87" y2="5927.52"/>
    <line class="cls-2" x1="5454.18" y1="6074.61" x2="5454.18" y2="5927.52"/>
    <line class="cls-2" x1="5573.48" y1="6074.61" x2="5573.48" y2="5927.52"/>
    <line class="cls-2" x1="5692.79" y1="6074.61" x2="5692.79" y2="5927.52"/>
    <line class="cls-2" x1="5812.1" y1="6074.61" x2="5812.1" y2="5927.52"/>
    <line class="cls-2" x1="5931.41" y1="6074.61" x2="5931.41" y2="5927.52"/>
    <line class="cls-2" x1="6050.72" y1="6074.61" x2="6050.72" y2="5927.52"/>
    <line class="cls-2" x1="6170.02" y1="6074.61" x2="6170.02" y2="5927.52"/>
    <line class="cls-2" x1="6289.33" y1="6074.61" x2="6289.33" y2="5927.52"/>
    <line class="cls-2" x1="6408.64" y1="6074.61" x2="6408.64" y2="5927.52"/>
    <line class="cls-2" x1="6527.95" y1="6074.61" x2="6527.95" y2="5927.52"/>
    <line class="cls-2" x1="6647.26" y1="6074.61" x2="6647.26" y2="5927.52"/>
    <line class="cls-2" x1="6766.56" y1="6074.61" x2="6766.56" y2="5927.52"/>
    <line class="cls-2" x1="6885.87" y1="6074.61" x2="6885.87" y2="5927.52"/>
    <line class="cls-2" x1="7005.18" y1="6074.61" x2="7005.18" y2="5927.52"/>
    <line class="cls-2" x1="7124.49" y1="6074.61" x2="7124.49" y2="5927.52"/>
    <line class="cls-2" x1="7243.8" y1="6074.61" x2="7243.8" y2="5927.52"/>
    <line class="cls-2" x1="7363.1" y1="6074.61" x2="7363.1" y2="5927.52"/>
    <line class="cls-2" x1="7482.41" y1="6074.61" x2="7482.41" y2="5927.52"/>
    <line class="cls-2" x1="7601.72" y1="6074.61" x2="7601.72" y2="5927.52"/>
    <line class="cls-2" x1="7721.03" y1="6074.61" x2="7721.03" y2="5927.52"/>
    <line class="cls-2" x1="7840.34" y1="6074.61" x2="7840.34" y2="5927.52"/>
    <line class="cls-2" x1="7959.64" y1="6074.61" x2="7959.64" y2="5927.52"/>
    <line class="cls-2" x1="8078.95" y1="6074.61" x2="8078.95" y2="5927.52"/>
    <line class="cls-2" x1="8198.26" y1="6074.61" x2="8198.26" y2="5927.52"/>
    <line class="cls-2" x1="8317.57" y1="6074.61" x2="8317.57" y2="5927.52"/>
    <line class="cls-2" x1="8436.88" y1="6074.61" x2="8436.88" y2="5927.52"/>
    <line class="cls-2" x1="8556.18" y1="6074.61" x2="8556.18" y2="5927.52"/>
    <line class="cls-2" x1="8675.49" y1="6074.61" x2="8675.49" y2="5927.52"/>
    <line class="cls-2" x1="8794.8" y1="6074.61" x2="8794.8" y2="5927.52"/>
    <line class="cls-2" x1="8914.11" y1="6074.61" x2="8914.11" y2="5927.52"/>
    <line class="cls-2" x1="9033.42" y1="6074.61" x2="9033.42" y2="5927.52"/>
    <line class="cls-2" x1="9152.72" y1="6074.61" x2="9152.72" y2="5927.52"/>
    <line class="cls-2" x1="9272.03" y1="6074.61" x2="9272.03" y2="5927.52"/>
    <line class="cls-2" x1="9391.34" y1="6074.61" x2="9391.34" y2="5927.52"/>
  </g>
  <text class="cls-4" transform="translate(212.3 4758.95)"><tspan x="0" y="0">4</tspan></text>
  <text class="cls-4" transform="translate(212.3 3288.1)"><tspan x="0" y="0">6</tspan></text>
  <text class="cls-4" transform="translate(212.3 1817.25)"><tspan x="0" y="0">8</tspan></text>
  <text class="cls-4" transform="translate(0 346.39)"><tspan x="0" y="0">10</tspan></text>
  <line class="cls-2" x1="562.55" y1="6074.61" x2="562.55" y2="191.2"/>
  <g>
    <line class="cls-2" x1="562.55" y1="6074.61" x2="783.27" y2="6074.61"/>
    <line class="cls-2" x1="562.55" y1="4603.75" x2="783.27" y2="4603.75"/>
    <line class="cls-2" x1="562.55" y1="3132.9" x2="783.27" y2="3132.9"/>
    <line class="cls-2" x1="562.55" y1="1662.05" x2="783.27" y2="1662.05"/>
    <line class="cls-2" x1="562.55" y1="191.2" x2="783.27" y2="191.2"/>
  </g>
</svg>