<?xml version="1.0" encoding="UTF-8"?>
<svg id="Layer_1" data-name="Layer 1" xmlns="http://www.w3.org/2000/svg" viewBox="0 0 9019.1 7040.55">
  <defs>
    <style>
      .cls-1 {
        fill: #5cc1dd;
      }

      .cls-1, .cls-2 {
        stroke-width: 0px;
      }

      .cls-2 {
        fill: #fff;
      }
    </style>
  </defs>
  <rect class="cls-1" x="2459.75" y="2518.32" width="5622.29" height="761.35"/>
  <rect class="cls-1" x="2928.28" y="3338.24" width="4685.24" height="819.92"/>
  <rect class="cls-1" x="2928.28" y="2284.06" width="1874.1" height="175.7"/>
  <rect class="cls-1" x="2928.28" y="878.48" width="1874.1" height="292.83"/>
  <path class="cls-1" d="M2459.75,1171.31v1112.75h2811.15v-1112.75h-2811.15ZM3865.33,1815.53h-351.39v-351.39h351.39v351.39ZM4450.98,1815.53h-351.39v-351.39h351.39v351.39ZM5036.64,1815.53h-351.39v-351.39h351.39v351.39Z"/>
  <rect class="cls-1" x="2928.28" y="585.66" width="644.22" height="292.83"/>
  <rect class="cls-1" x="4216.72" y="527.09" width="468.52" height="292.83"/>
  <rect class="cls-1" x="168.32" y="468.52" width="117.13" height="1815.53"/>
  <rect class="cls-1" x="6559.34" y="4216.72" width="1054.18" height="1522.7"/>
  <rect class="cls-1" x="6617.91" y="2284.06" width="1054.18" height="234.26"/>
  <rect class="cls-1" x="2928.28" y="4216.72" width="1054.18" height="1522.7"/>
  <rect class="cls-1" x="4743.81" y="4216.72" width="1054.18" height="1522.7"/>
  <rect class="cls-1" x="109.75" y="2635.45" width="234.26" height="175.7"/>
  <path class="cls-1" d="M245.35,2753.29c-49.61-3.82-96.21,7.91-135.6,30.71v46.83c0,21.48,17.41,38.88,38.88,38.88h75.85c59.92,0,114.91,48.7,119.21,108.46,4.94,68.61-49.26,125.8-116.82,125.8-43.35,0-81.17-23.56-101.42-58.57H0c26.01,101.04,117.72,175.7,226.88,175.7,135.19,0,243.64-114.52,233.62-251.84-8.36-114.57-100.61-207.15-215.15-215.97Z"/>
  <path class="cls-1" d="M51.18,2284.06v351.39h351.39v-351.39H51.18ZM226.88,2518.32c-32.34,0-58.57-26.22-58.57-58.57s26.22-58.57,58.57-58.57,58.57,26.22,58.57,58.57-26.22,58.57-58.57,58.57Z"/>
  <path class="cls-1" d="M7081.06,1076.36c13.26-12.04,26.52-24.09,39.79-36.13,12.69-11.53,25.8-22.74,37.89-34.9,12.02-12.09,21.98-25.79,28.68-41.51s11.35-32.64,15.23-49.55c4.62-20.18,8.05-40.87,8.14-61.62h-30c.25,2.07.51,4.14.76,6.21.03.27.07.55.1.82.35,2.84.66,4.31,1.57,6.73s1.85,5.01,2.75,7.53c3.57,10.05,6.8,20.22,9.71,30.48,5.8,20.4,10.38,41.13,14.08,62.01,2.1,11.85,3.91,23.76,5.52,35.69l-.54-3.99c4.14,30.96,6.85,62.08,9.2,93.22.66,8.74,1.3,17.49,1.93,26.23,2.48-4.32,4.95-8.63,7.43-12.95-10.58,5.36-21.15,10.71-31.73,16.07-1.51.77-3.02,1.53-4.54,2.3,5.05,8.63,10.09,17.27,15.14,25.9,27.48-16.83,39.54-49.44,39.46-80.53-.09-35.38-16.02-67.65-27.5-100.31-6.82-19.4-11.71-39.42-14.49-59.79l.54,3.99c-.61-8.46-1.23-16.93-1.84-25.39-.97-13.43-1.95-26.85-2.92-40.28-.23-3.11-.45-6.22-.68-9.33-.25-3.41-1.1-6.34-3.22-9.09-1.91-2.48-4.65-4.66-7.79-5.38-2.64-.6-5.34-.6-7.98,0-3.19.73-7.6,3.81-8.96,6.89-8.09,18.21-13.66,37.13-18.26,56.48-4.24,17.81-7.86,35.78-13.03,53.35-2.65,9.01-5.71,17.9-9.36,26.56l1.51-3.58c-5.03,11.84-11.2,23.19-19.05,33.42l2.35-3.04c-6.4,8.26-13.85,15.36-22.11,21.74l3.04-2.35c-15.2,11.7-33,22.63-41.63,40.55-2.72,5.64-4.7,11.4-5.61,17.59s-1.42,12.74-1.39,19.2c.05,12.26,1.83,24.96,8.14,35.7,5.75,9.77,14.98,17.77,25.23,22.52,11.9,5.51,24.46,7.81,37.51,8.47,23.9,1.21,48.28-1.36,71.63-6.42,21.14-4.58,42.7-12.81,54.87-31.82,6.26-9.77,9.09-21.58,11.27-32.83,2.35-12.16,3.81-24.56,4.37-36.93,2.09-46.63-8.28-93.12-20.55-137.8-5.32-19.37-10.51-38.98-18.18-57.58-4.06-9.86-8.51-19.54-14.34-28.49-3.16-4.86-6.68-9.52-10.43-13.93-4.69-5.52-11.04-13.21-18.81-12.89-1.91.08-3.84.32-5.74.48-3.42.29-6.32,1.08-9.09,3.22-2.43,1.88-4.75,4.68-5.38,7.79-3.67,18.29-7.33,36.57-11.15,54.83s-7.28,34.89-12.26,52c-2.76,9.48-5.96,18.84-9.78,27.95l1.51-3.58c-5.53,13.04-12.39,25.52-21.02,36.79l2.35-3.04c-6.69,8.66-14.37,16.3-23.01,23.01l3.04-2.35c-10.17,7.84-20.6,15.23-29.38,24.67-8.07,8.66-15.29,18.46-20.5,29.12-10.54,21.58-14.18,46.44-6.31,69.54,3.84,11.27,9.71,21.65,17.9,30.35s19.55,15.5,31.47,18.93c12.91,3.71,26.66,3.99,40,3.83s27.35-.72,41-1.43c12.88-.67,25.88-1.02,38.69-2.51,13.58-1.58,27.35-4.46,38.8-12.41,9.78-6.79,17.7-15.76,23.29-26.29,5.25-9.88,8.85-20.67,11.06-31.62,5.11-25.41,5.23-51.97,3.01-77.7-2.38-27.67-7.51-55.05-13.89-82.06-3.07-12.97-6.41-25.88-9.85-38.76-3.15-11.81-6.41-23.62-10.55-35.13-8.67-24.09-21.15-47.49-40.94-64.3-4.97-4.22-10.24-8.17-15.85-11.51,2.48,4.32,4.95,8.63,7.43,12.95.61-5.48,1.22-10.96,1.83-16.44.55-4.96-3.21-10.67-7.43-12.95s-8.3-4.33-12.78-5.54l3.58,1.51c-2.39-1.03-4.65-2.04-7.2-2.5-4.87-.88-9.09-.4-13.08,2.68s-5.34,6.88-5.91,11.78-1.17,9.6-1.81,14.39l.54-3.99c-5.35,39.81-13.1,79.63-24.39,118.2-2.68,9.16-5.72,18.21-9.4,27.01l1.51-3.58c-4.52,10.7-10.03,20.99-17.13,30.21l2.35-3.04c-4.79,6.16-10.24,11.73-16.38,16.54l3.04-2.35c-5.62,4.33-11.66,8.03-17.7,11.73-6.86,4.2-13.5,8.57-19.85,13.53-10.62,8.29-19.6,18.71-26.78,30.09-14.86,23.52-21.51,52.26-17.8,79.85,2.19,16.3,8.49,31.24,19.67,43.44,10.02,10.93,22.99,18.3,36.57,23.84,14.39,5.87,29.82,8.58,45.21,10.14,14.67,1.49,29.45,1.49,44.18,1.29,28.14-.4,58-.66,83.23-14.81,25.3-14.18,39.24-40.67,47.68-67.39,4.37-13.83,7.73-28.08,9.93-42.42,2.48-16.22,3.73-32.53,2.41-48.92-2.56-31.85-11.8-62.81-21.51-93.11-4.7-14.66-9.75-29.21-15.16-43.63-5.04-13.46-10.27-26.89-16.34-39.92-10.87-23.34-25.55-45.48-47.14-60.16-2.36-1.61-4.81-3.09-7.33-4.42-1.19-.63-2.4-1.23-3.62-1.8-2.74-1.27-5.49-2.67-8.63-2.53-2.8.13-5.23.93-7.74,2.13-3.23,1.54-5.97,5.63-6.89,8.96-.99,3.59-.54,8.37,1.51,11.56s5.14,6.02,8.96,6.89c4.12.94,7.75.31,11.56-1.51l.17-.08h-15.14c5.76,2.59,11.14,5.86,16.15,9.71l-3.04-2.35c6.77,5.29,12.7,11.52,17.95,18.31l-2.35-3.04c10.31,13.46,17.9,28.76,24.48,44.32l-1.51-3.58c7.55,17.94,14.21,36.3,20.45,54.73,6.54,19.34,12.62,38.89,17.68,58.66,2.87,11.2,5.29,22.53,6.85,33.99l-.54-3.99c2.29,17.22,2.18,34.47-.11,51.69l.54-3.99c-1.58,11.56-4,22.98-6.99,34.25-2.49,9.39-5.38,18.67-9.12,27.64l1.51-3.58c-3.64,8.61-8.07,16.87-13.76,24.3l2.35-3.04c-3.82,4.92-8.15,9.38-13.06,13.22l3.04-2.35c-4.83,3.71-10.11,6.72-15.7,9.12l3.58-1.51c-8.81,3.7-18.14,5.82-27.59,7.09l3.99-.54c-11.03,1.44-22.16,1.77-33.27,1.96-12.29.21-24.58.41-36.86-.12-7.1-.31-14.18-.87-21.22-1.8l3.99.54c-12.29-1.67-24.45-4.52-35.91-9.32l3.58,1.51c-7.15-3.04-13.95-6.83-20.12-11.56l3.04,2.35c-4.47-3.48-8.52-7.41-12.01-11.88l2.35,3.04c-3.01-3.93-5.47-8.16-7.42-12.71l1.51,3.58c-2.42-5.84-3.95-11.95-4.82-18.2l.54,3.99c-1.16-8.8-1.09-17.71.06-26.51l-.54,3.99c1.31-9.62,3.91-19,7.68-27.95l-1.51,3.58c3.66-8.56,8.35-16.62,14-24.02l-2.35,3.04c5.44-7.04,11.7-13.38,18.72-18.86l-3.04,2.35c6.91-5.32,14.47-9.68,21.87-14.29,7.98-4.97,15.78-10.41,22.58-16.92,11.82-11.32,20.86-25.54,27.49-40.43s11.83-31.2,16.08-47.4c4.85-18.46,9.08-37.09,12.7-55.83,4.3-22.31,7.69-44.79,10.34-67.36-6.33,4.82-12.66,9.64-18.99,14.46l2.29.41-3.58-1.51c2.74,1.18,5.55,2.12,8.31,3.23l-3.58-1.51c1.99.85,3.9,1.86,5.8,2.89-2.48-4.32-4.95-8.63-7.43-12.95-.61,5.48-1.22,10.96-1.83,16.44-.57,5.12,3.27,10.47,7.43,12.95,3.32,1.98,6.51,4.16,9.57,6.52l-3.04-2.35c6.96,5.45,13.12,11.78,18.54,18.76l-2.35-3.04c7.33,9.54,13.07,20.12,17.75,31.18l-1.51-3.58c7.08,16.92,11.75,34.71,16.41,52.41,5,18.97,9.73,38.01,13.59,57.25,2.2,10.96,4.1,21.98,5.6,33.06l-.54-3.99c3.71,27.65,5.04,55.97,1.32,83.69l.54-3.99c-1.46,10.62-3.89,21.15-8.03,31.07l1.51-3.58c-2.47,5.82-5.53,11.36-9.4,16.37l2.35-3.04c-2.83,3.6-6.02,6.86-9.64,9.67l3.04-2.35c-3.39,2.59-7.06,4.72-10.98,6.42l3.58-1.51c-6.46,2.72-13.29,4.23-20.23,5.16l3.99-.54c-13.47,1.74-27.18,2.06-40.73,2.76-14.53.75-29.07,1.35-43.62,1.45-7.39.05-14.79-.09-22.14-1.03l3.99.54c-6.23-.84-12.33-2.29-18.15-4.72l3.58,1.51c-4.13-1.79-7.98-4.05-11.55-6.79l3.04,2.35c-3.87-3.03-7.3-6.53-10.31-10.41l2.35,3.04c-3.34-4.39-6.09-9.17-8.28-14.24l1.51,3.58c-2.46-5.83-4.14-11.92-5.03-18.18l.54,3.99c-.85-6.35-.85-12.72,0-19.07l-.54,3.99c1.03-7.3,3.06-14.39,5.91-21.19l-1.51,3.58c3.41-7.96,7.89-15.39,13.15-22.25l-2.35,3.04c6.61-8.53,14.35-16.01,22.85-22.63l-3.04,2.35c6.76-5.22,13.78-10.13,20.2-15.76,5.05-4.43,9.71-9.32,13.96-14.52,9.32-11.42,17.13-23.8,23.28-37.2,13.27-28.87,19.92-59.8,26.38-90.73,3.71-17.75,7.27-35.53,10.83-53.3l-14.46,11.01c1.93-.16,3.85-.32,5.78-.49l-10.61-4.39c4.11,3.79,7.86,7.92,11.28,12.35l-2.35-3.04c7.06,9.25,12.55,19.54,17.09,30.22l-1.51-3.58c6.61,15.7,11.26,32.13,15.89,48.5,5.38,19.04,10.47,38.18,14.53,57.55,2.31,10.99,4.27,22.06,5.78,33.19l-.54-3.99c3.28,24.67,4.18,49.7.92,74.43l.54-3.99c-1.58,11.67-3.6,23.82-8.16,34.74l1.51-3.58c-1.5,3.47-3.32,6.75-5.61,9.76l2.35-3.04c-2.31,2.93-4.97,5.51-7.92,7.79l3.04-2.35c-4.12,3.11-8.65,5.56-13.4,7.57l3.58-1.51c-13.75,5.73-28.88,8.38-43.56,10.39l3.99-.54c-9.55,1.28-19.16,2.07-28.8,2.34s-18.72.18-27.98-1.05l3.99.54c-6.22-.88-12.34-2.34-18.15-4.76l3.58,1.51c-4.11-1.77-7.99-3.98-11.54-6.71l3.04,2.35c-2.69-2.12-5.13-4.5-7.27-7.19l2.35,3.04c-1.92-2.5-3.5-5.16-4.77-8.04l1.51,3.58c-1.74-4.14-2.78-8.47-3.38-12.91l.54,3.99c-1.06-8.43-.96-17.22.1-25.65l-.54,3.99c.59-4.36,1.6-8.61,3.27-12.68l-1.51,3.58c1.6-3.75,3.69-7.22,6.16-10.46l-2.35,3.04c4.98-6.41,11.18-11.67,17.58-16.62l-3.04,2.35c11.18-8.6,22.98-16.51,32.53-27,10.07-11.06,18.25-23.74,24.59-37.27,6.43-13.74,11.46-28.07,15.47-42.69,4.15-15.14,7.35-30.53,10.95-45.8,4.09-17.32,8.72-34.56,15.64-50.99l-1.51,3.58c.47-1.11.95-2.21,1.44-3.31l-27.95-7.57c1.35,18.64,2.71,37.27,4.06,55.91.56,7.69.87,15.44,1.92,23.09,3.23,23.53,9.4,46.33,17.68,68.57,8.95,24.03,19.37,47.87,22.84,73.47l-.54-3.99c1.22,9.39,1.26,18.89.04,28.28l.54-3.99c-1.08,8.03-3.08,15.9-6.2,23.38l1.51-3.58c-2.38,5.61-5.38,10.91-9.09,15.75l2.35-3.04c-3.07,3.93-6.55,7.48-10.48,10.56l3.04-2.35c-1.72,1.32-3.5,2.55-5.35,3.68-3.26,2-5.87,5.25-6.89,8.96s-.54,8.37,1.51,11.56c4.62,7.16,13.02,9.18,20.52,5.38,10.58-5.36,21.15-10.71,31.73-16.07,1.51-.77,3.02-1.53,4.54-2.3,4.38-2.22,7.79-8.03,7.43-12.95-2.48-34.3-5-68.61-9.03-102.77-4.15-35.09-9.67-70.09-18.44-104.35-4.75-18.55-10.45-36.86-17.28-54.76l.54,3.99c-.29-2.35-.57-4.69-.86-7.04-.5-4.12-1.34-7.55-4.39-10.61-2.6-2.6-6.87-4.56-10.61-4.39-8.16.37-14.96,6.59-15,15-.04,9.14-.76,18.24-1.96,27.29l.54-3.99c-1.84,13.6-4.74,27.03-8.04,40.35-3,12.1-6.38,24.13-11.19,35.65l1.51-3.58c-3.79,8.94-8.46,17.41-14.36,25.13l2.35-3.04c-9.33,12.06-20.88,22.12-32.12,32.33-12.3,11.17-24.6,22.34-36.9,33.51-6.92,6.28-13.84,12.57-20.76,18.85-5.83,5.29-5.77,15.91,0,21.21,6.23,5.71,15,5.64,21.21,0h0Z"/>
  <path class="cls-1" d="M7262.13,1229.88h-234.26l-351.39,1054.18h937.05l-351.39-1054.18ZM7071.79,1288.44h146.41l219.62,937.05h-585.66l219.62-937.05Z"/>
  <rect class="cls-1" x="6695.96" y="1951.29" width="799.82" height="58.57" transform="translate(677.86 5597.63) rotate(-45)"/>
  <rect class="cls-1" x="6793.73" y="1951.59" width="798.96" height="58.57" transform="translate(10878.89 8467.94) rotate(-135)"/>
  <rect class="cls-1" x="6959.13" y="1483.68" width="469.39" height="58.57" transform="translate(11210.79 7669.59) rotate(-135)"/>
  <rect class="cls-1" x="6861.48" y="1483.68" width="469.39" height="58.57" transform="translate(1008.6 5460.89) rotate(-45)"/>
  <rect class="cls-1" x="1874.53" y="374.61" width="538.36" height="58.57" transform="translate(342.28 1634.13) rotate(-45)"/>
  <rect class="cls-1" x="1871.5" y="364.78" width="559.06" height="58.57" transform="translate(908.67 -1405.59) rotate(45)"/>
  <rect class="cls-1" x="1481.98" y="356.31" width="486.59" height="58.57" transform="translate(232.67 1332.89) rotate(-45)"/>
  <rect class="cls-1" x="1460.02" y="368.44" width="569.42" height="58.57" transform="translate(792.25 -1117.22) rotate(45)"/>
  <rect class="cls-1" x="1101.05" y="333.2" width="455.53" height="58.57" transform="translate(132.89 1045.78) rotate(-45)"/>
  <rect class="cls-1" x="1126.04" y="355.68" width="509.07" height="58.57" transform="translate(676.57 -863.46) rotate(45)"/>
  <rect class="cls-1" x="781.97" y="314.79" width="417.67" height="58.57" transform="translate(46.9 801.38) rotate(-45)"/>
  <rect class="cls-1" x="781.97" y="332.98" width="459.09" height="58.57" transform="translate(552.43 -609.14) rotate(45)"/>
  <polygon class="cls-1" points="819.92 217.11 555.05 475.76 484.42 469.78 778.51 175.7 819.92 217.11"/>
  <rect class="cls-1" x="433.87" y="318.97" width="419.45" height="58.57" transform="translate(434.76 -353.09) rotate(45)"/>
  <rect class="cls-1" x="117.13" y="234.26" width="234.26" height="234.26"/>
  <path class="cls-1" d="M3093.21,91.29c6.92,17.02,10.77,35.62,10.77,55.12,0,21.07-4.48,41.08-12.5,59.18l1125.24,321.5h292.83L3093.21,91.29Z"/>
  <path class="cls-1" d="M2957.56,292.83c-10.03,0-19.82-1.01-29.28-2.94v295.76h175.7l-47.35-331.45c-26.07,23.97-60.85,38.62-99.06,38.62Z"/>
  <path class="cls-1" d="M2869.71,263.55v322.11L117.13,429.48v-195.22h2723.3c-12.79-17.03-21.95-36.93-26.35-58.57H58.57v292.83l2869.71,234.26v-412.89c-21.64-4.39-41.54-13.56-58.57-26.35Z"/>
  <path class="cls-1" d="M2957.56,0c-80.86,0-146.41,65.55-146.41,146.41s65.55,146.41,146.41,146.41,146.41-65.55,146.41-146.41S3038.42,0,2957.56,0ZM2957.56,234.26c-48.52,0-87.85-39.33-87.85-87.85s39.33-87.85,87.85-87.85,87.85,39.33,87.85,87.85-39.33,87.85-87.85,87.85Z"/>
  <path class="cls-1" d="M8675.44,6133.28l-63.87-28.2c-38.4-16.96-83.61-16.96-122.01,0l-159.7,70.52c-156,68.88-339.63,68.88-495.63,0l-159.7-70.52c-38.4-16.96-83.61-16.96-122.01,0l-159.7,70.52c-156,68.88-339.63,68.88-495.63,0l-159.7-70.52c-38.4-16.96-83.61-16.96-122.01,0l-159.7,70.52c-156,68.88-339.63,68.88-495.63,0l-159.7-70.52c-38.4-16.96-83.61-16.96-122.01,0l-159.7,70.52c-156,68.88-339.63,68.88-495.63,0l-159.7-70.52c-38.4-16.96-83.61-16.96-122.01,0l-159.7,70.52c-156,68.88-339.63,68.88-495.63,0l-159.7-70.52c-38.4-16.96-83.61-16.96-122.01,0l-159.7,70.52c-156,68.88-339.63,68.88-495.63,0l-159.7-70.52c-38.4-16.96-83.61-16.96-122.01,0l-159.7,70.52c-156,68.88-339.63,68.88-495.63,0l-159.7-70.52c-38.4-16.96-83.61-16.96-122.01,0l-63.87,28.2c-157.89,69.71-343.65-31.67-343.65-187.56h0c0-45.63,29.19-87.34,75.41-107.75l158.85-70.14,173.26-76.5c38.4-16.96,83.61-16.96,122.01,0l159.7,70.52c156,68.88,339.63,68.88,495.63,0l159.7-70.52c38.4-16.96,83.61-16.96,122.01,0l159.7,70.52c156,68.88,339.63,68.88,495.63,0l159.7-70.52c38.4-16.96,83.61-16.96,122.01,0l159.7,70.52c156,68.88,339.63,68.88,495.63,0l159.7-70.52c38.4-16.96,83.61-16.96,122.01,0l159.7,70.52c156,68.88,339.63,68.88,495.63,0l159.7-70.52c38.4-16.96,83.61-16.96,122.01,0l159.7,70.52c156,68.88,339.63,68.88,495.63,0l159.7-70.52c38.4-16.96,83.61-16.96,122.01,0l159.7,70.52c156,68.88,339.63,68.88,495.63,0l159.7-70.52c38.4-16.96,83.61-16.96,122.01,0l159.7,70.52c156,68.88,339.63,68.88,495.63,0l159.7-70.52c38.4-16.96,83.61-16.96,122.01,0l173.26,76.5,158.85,70.14c46.21,20.41,75.41,62.12,75.41,107.75h0c0,155.89-185.77,257.28-343.65,187.56Z"/>
  <path class="cls-1" d="M8675.44,6946.57l-63.87-28.2c-38.4-16.96-83.61-16.96-122.01,0l-159.7,70.52c-156,68.88-339.63,68.88-495.63,0l-159.7-70.52c-38.4-16.96-83.61-16.96-122.01,0l-159.7,70.52c-156,68.88-339.63,68.88-495.63,0l-159.7-70.52c-38.4-16.96-83.61-16.96-122.01,0l-159.7,70.52c-156,68.88-339.63,68.88-495.63,0l-159.7-70.52c-38.4-16.96-83.61-16.96-122.01,0l-159.7,70.52c-156,68.88-339.63,68.88-495.63,0l-159.7-70.52c-38.4-16.96-83.61-16.96-122.01,0l-159.7,70.52c-156,68.88-339.63,68.88-495.63,0l-159.7-70.52c-38.4-16.96-83.61-16.96-122.01,0l-159.7,70.52c-156,68.88-339.63,68.88-495.63,0l-159.7-70.52c-38.4-16.96-83.61-16.96-122.01,0l-159.7,70.52c-156,68.88-339.63,68.88-495.63,0l-159.7-70.52c-38.4-16.96-83.61-16.96-122.01,0l-63.87,28.2c-157.89,69.71-343.65-31.67-343.65-187.56h0c0-45.63,29.19-87.34,75.41-107.75l158.85-70.14,173.26-76.5c38.4-16.96,83.61-16.96,122.01,0l159.7,70.52c156,68.88,339.63,68.88,495.63,0l159.7-70.52c38.4-16.96,83.61-16.96,122.01,0l159.7,70.52c156,68.88,339.63,68.88,495.63,0l159.7-70.52c38.4-16.96,83.61-16.96,122.01,0l159.7,70.52c156,68.88,339.63,68.88,495.63,0l159.7-70.52c38.4-16.96,83.61-16.96,122.01,0l159.7,70.52c156,68.88,339.63,68.88,495.63,0l159.7-70.52c38.4-16.96,83.61-16.96,122.01,0l159.7,70.52c156,68.88,339.63,68.88,495.63,0l159.7-70.52c38.4-16.96,83.61-16.96,122.01,0l159.7,70.52c156,68.88,339.63,68.88,495.63,0l159.7-70.52c38.4-16.96,83.61-16.96,122.01,0l159.7,70.52c156,68.88,339.63,68.88,495.63,0l159.7-70.52c38.4-16.96,83.61-16.96,122.01,0l173.26,76.5,158.85,70.14c46.21,20.41,75.41,62.12,75.41,107.75h0c0,155.89-185.77,257.28-343.65,187.56Z"/>
  <path class="cls-2" d="M8675.44,6532.82l-63.87-28.2c-38.4-16.96-83.61-16.96-122.01,0l-159.7,70.52c-156,68.88-339.63,68.88-495.63,0l-159.7-70.52c-38.4-16.96-83.61-16.96-122.01,0l-159.7,70.52c-156,68.88-339.63,68.88-495.63,0l-159.7-70.52c-38.4-16.96-83.61-16.96-122.01,0l-159.7,70.52c-156,68.88-339.63,68.88-495.63,0l-159.7-70.52c-38.4-16.96-83.61-16.96-122.01,0l-159.7,70.52c-156,68.88-339.63,68.88-495.63,0l-159.7-70.52c-38.4-16.96-83.61-16.96-122.01,0l-159.7,70.52c-156,68.88-339.63,68.88-495.63,0l-159.7-70.52c-38.4-16.96-83.61-16.96-122.01,0l-159.7,70.52c-156,68.88-339.63,68.88-495.63,0l-159.7-70.52c-38.4-16.96-83.61-16.96-122.01,0l-159.7,70.52c-156,68.88-339.63,68.88-495.63,0l-159.7-70.52c-38.4-16.96-83.61-16.96-122.01,0l-63.87,28.2c-157.89,69.71-343.65-31.67-343.65-187.56h0c0-45.63,29.19-87.34,75.41-107.75l158.85-70.14,173.26-76.5c38.4-16.96,83.61-16.96,122.01,0l159.7,70.52c156,68.88,339.63,68.88,495.63,0l159.7-70.52c38.4-16.96,83.61-16.96,122.01,0l159.7,70.52c156,68.88,339.63,68.88,495.63,0l159.7-70.52c38.4-16.96,83.61-16.96,122.01,0l159.7,70.52c156,68.88,339.63,68.88,495.63,0l159.7-70.52c38.4-16.96,83.61-16.96,122.01,0l159.7,70.52c156,68.88,339.63,68.88,495.63,0l159.7-70.52c38.4-16.96,83.61-16.96,122.01,0l159.7,70.52c156,68.88,339.63,68.88,495.63,0l159.7-70.52c38.4-16.96,83.61-16.96,122.01,0l159.7,70.52c156,68.88,339.63,68.88,495.63,0l159.7-70.52c38.4-16.96,83.61-16.96,122.01,0l159.7,70.52c156,68.88,339.63,68.88,495.63,0l159.7-70.52c38.4-16.96,83.61-16.96,122.01,0l173.26,76.5,158.85,70.14c46.21,20.41,75.41,62.12,75.41,107.75h0c0,155.89-185.77,257.28-343.65,187.56Z"/>
  <path class="cls-2" d="M8675.44,5755.67l-63.87-19.17c-38.4-11.53-83.61-11.53-122.01,0l-159.7,47.93c-156,46.82-339.63,46.82-495.63,0l-159.7-47.93c-38.4-11.53-83.61-11.53-122.01,0l-159.7,47.93c-156,46.82-339.63,46.82-495.63,0l-159.7-47.93c-38.4-11.53-83.61-11.53-122.01,0l-159.7,47.93c-156,46.82-339.63,46.82-495.63,0l-159.7-47.93c-38.4-11.53-83.61-11.53-122.01,0l-159.7,47.93c-156,46.82-339.63,46.82-495.63,0l-159.7-47.93c-38.4-11.53-83.61-11.53-122.01,0l-159.7,47.93c-156,46.82-339.63,46.82-495.63,0l-159.7-47.93c-38.4-11.53-83.61-11.53-122.01,0l-159.7,47.93c-156,46.82-339.63,46.82-495.63,0l-159.7-47.93c-38.4-11.53-83.61-11.53-122.01,0l-159.7,47.93c-156,46.82-339.63,46.82-495.63,0l-159.7-47.93c-38.4-11.53-83.61-11.53-122.01,0l-63.87,19.17c-157.89,47.39-343.65-21.53-343.65-127.5h0c0-31.02,29.19-59.37,75.41-73.24l158.85-47.68,173.26-52c38.4-11.53,83.61-11.53,122.01,0l159.7,47.93c156,46.82,339.63,46.82,495.63,0l159.7-47.93c38.4-11.53,83.61-11.53,122.01,0l159.7,47.93c156,46.82,339.63,46.82,495.63,0l159.7-47.93c38.4-11.53,83.61-11.53,122.01,0l159.7,47.93c156,46.82,339.63,46.82,495.63,0l159.7-47.93c38.4-11.53,83.61-11.53,122.01,0l159.7,47.93c156,46.82,339.63,46.82,495.63,0l159.7-47.93c38.4-11.53,83.61-11.53,122.01,0l159.7,47.93c156,46.82,339.63,46.82,495.63,0l159.7-47.93c38.4-11.53,83.61-11.53,122.01,0l159.7,47.93c156,46.82,339.63,46.82,495.63,0l159.7-47.93c38.4-11.53,83.61-11.53,122.01,0l159.7,47.93c156,46.82,339.63,46.82,495.63,0l159.7-47.93c38.4-11.53,83.61-11.53,122.01,0l173.26,52,158.85,47.68c46.21,13.87,75.41,42.23,75.41,73.24h0c0,105.97-185.77,174.89-343.65,127.5Z"/>
</svg>