<?xml version="1.0" encoding="UTF-8"?>
<svg id="Layer_1" data-name="Layer 1" xmlns="http://www.w3.org/2000/svg" xmlns:xlink="http://www.w3.org/1999/xlink" viewBox="0 0 9667.17 5401.94">
  <defs>
    <style>
      .cls-1 {
        fill: url(#linear-gradient);
      }

      .cls-1, .cls-2, .cls-3, .cls-4 {
        stroke-width: 0px;
      }

      .cls-5 {
        stroke: #2e3192;
      }

      .cls-5, .cls-6 {
        stroke-linecap: round;
        stroke-width: 2px;
      }

      .cls-5, .cls-6, .cls-7 {
        fill: none;
        stroke-miterlimit: 10;
      }

      .cls-6 {
        stroke: #8e324d;
      }

      .cls-7 {
        stroke: #000;
      }

      .cls-8 {
        opacity: .9;
      }

      .cls-2 {
        fill: url(#linear-gradient-2);
      }

      .cls-9 {
        fill: #231f20;
        font-family: MyriadPro-Regular, 'Myriad Pro';
        font-size: 416.57px;
      }

      .cls-3 {
        fill: #e0f3fc;
      }

      .cls-4 {
        fill: #bcc9ce;
      }
    </style>
    <linearGradient id="linear-gradient" x1="5219.6" y1="644.77" x2="5219.6" y2="5401.64" gradientUnits="userSpaceOnUse">
      <stop offset="0" stop-color="#8e324d"/>
      <stop offset=".57" stop-color="#974b5c"/>
      <stop offset="1" stop-color="#e0f3fc"/>
    </linearGradient>
    <linearGradient id="linear-gradient-2" x1="5219.6" y1="5011.26" x2="5219.6" y2="5401.94" gradientUnits="userSpaceOnUse">
      <stop offset=".41" stop-color="#2f358f"/>
      <stop offset="1" stop-color="#e0f3fc"/>
    </linearGradient>
  </defs>
  <rect class="cls-3" x="779.93" y=".5" width="8886.73" height="5394.03"/>
  <rect class="cls-4" x="779.93" y="4191.16" width="8886.73" height="37.94"/>
  <rect class="cls-4" x="779.93" y="3004.24" width="8886.73" height="37.94"/>
  <rect class="cls-4" x="779.93" y="1822.35" width="8886.73" height="37.94"/>
  <rect class="cls-4" x="772.52" y="640.46" width="8886.73" height="37.94"/>
  <g class="cls-8">
    <polygon class="cls-1" points="9238.94 3972.95 9118.85 4032.17 8998.76 3937.41 8878.67 4063.75 8758.57 3901.88 8638.48 3767.65 8518.39 3787.39 8398.3 3459.7 8278.21 3609.73 8158.12 3704.48 8038.03 3799.23 7917.94 3708.43 7797.85 3491.29 7677.76 3076.75 7557.66 3183.34 7437.57 2993.84 7317.48 2942.52 7197.39 2899.09 7077.3 2729.32 6957.21 2930.67 6837.12 3060.96 6717.03 2887.24 6596.94 2370.05 6476.85 2828.02 6356.75 2855.66 6236.66 2843.81 6116.57 2903.03 5996.48 3151.76 5876.39 3890.04 5756.3 4375.64 5636.21 4071.65 5516.12 4253.26 5396.03 4253.26 5275.94 4024.27 5155.84 4059.8 5035.75 4000.58 4915.66 4051.91 4795.57 3834.77 4675.48 3676.85 4555.39 3534.72 4435.3 3218.88 4315.21 3688.69 4195.12 3672.9 4075.02 3451.81 3954.93 3179.4 3834.84 3088.59 3714.75 2389.79 3594.66 2527.97 3474.57 2681.95 3354.48 2863.55 3234.39 2685.89 3114.3 2393.74 2994.21 2196.34 2874.11 2006.84 2754.02 1568.61 2633.93 1094.85 2513.84 644.77 2393.75 5228.41 2273.66 5236.31 2153.57 5204.73 2033.48 5181.04 1913.39 5188.93 1793.3 4995.48 1673.2 4723.07 1553.11 4817.82 1433.02 4529.62 1312.93 4853.35 1192.84 5098.13 1072.75 4782.29 952.66 4821.77 832.57 4959.95 772.52 5401.64 9666.67 5401.64 9599.21 3909.78 9479.12 3818.97 9359.03 3929.52 9238.94 3972.95"/>
  </g>
  <g class="cls-8">
    <polygon class="cls-2" points="9666.63 5401.94 772.56 5401.94 832.74 5267.86 952.81 5291.58 1072.96 5279.72 1433.17 5279.72 1553.32 5263.93 1673.39 5256.07 1793.46 5263.93 1913.61 5267.86 2033.68 5263.93 2153.75 5248.14 2273.82 5248.14 2393.97 5240.29 2514.03 5232.36 2634.11 5220.5 2754.18 5220.5 2874.32 5188.92 2994.39 5192.85 3114.46 5177.07 3234.61 5165.28 3354.68 5109.99 3474.75 5117.85 3594.82 5098.13 3714.96 5090.2 3835.04 5121.85 3955.11 5094.2 4075.18 5066.56 4195.33 5070.48 4315.4 5078.42 4435.47 5058.63 4555.61 5086.27 4675.68 5086.27 4795.75 5098.13 4915.83 5090.2 5035.97 5070.48 5156.04 5086.27 5276.11 5066.56 5396.18 5082.34 5516.33 5058.63 5636.4 5074.41 5756.47 5066.56 5876.54 5082.34 5996.68 5078.42 6116.76 5066.56 6236.83 5050.77 6356.97 5046.84 6477.04 5019.19 6597.12 5023.12 6717.19 5023.12 6837.33 5019.19 6957.4 5023.12 7077.47 5015.19 7197.54 5023.12 7317.69 5015.19 7437.76 5015.19 7557.83 5023.12 7677.98 5023.12 7798.05 5011.26 7918.12 5023.12 8038.19 5042.84 8158.33 5027.05 8278.4 5038.91 8398.48 5046.84 8758.76 5046.84 8878.84 5058.63 8998.98 5062.63 9119.05 5062.63 9239.12 5078.42 9359.19 5090.2 9479.34 5094.2 9599.41 5098.13 9666.63 5401.94"/>
  </g>
  <g>
    <line class="cls-5" x1="952.81" y1="5291.58" x2="832.72" y2="5267.89"/>
    <line class="cls-5" x1="1072.9" y1="5279.73" x2="952.81" y2="5291.58"/>
    <line class="cls-5" x1="1193" y1="5279.73" x2="1072.9" y2="5279.73"/>
    <line class="cls-5" x1="1313.09" y1="5279.73" x2="1193" y2="5279.73"/>
    <line class="cls-5" x1="1433.18" y1="5279.73" x2="1313.09" y2="5279.73"/>
    <line class="cls-5" x1="1553.27" y1="5263.94" x2="1433.18" y2="5279.73"/>
    <line class="cls-5" x1="1673.36" y1="5256.04" x2="1553.27" y2="5263.94"/>
    <line class="cls-5" x1="1793.45" y1="5263.94" x2="1673.36" y2="5256.04"/>
    <line class="cls-5" x1="1913.54" y1="5267.89" x2="1793.45" y2="5263.94"/>
    <line class="cls-5" x1="2033.63" y1="5263.94" x2="1913.54" y2="5267.89"/>
    <line class="cls-5" x1="2153.72" y1="5248.15" x2="2033.63" y2="5263.94"/>
    <line class="cls-5" x1="2273.81" y1="5248.15" x2="2153.72" y2="5248.15"/>
    <line class="cls-5" x1="2393.91" y1="5240.25" x2="2273.81" y2="5248.15"/>
    <line class="cls-5" x1="2514" y1="5232.36" x2="2393.91" y2="5240.25"/>
    <line class="cls-5" x1="2634.09" y1="5220.51" x2="2514" y2="5232.36"/>
    <line class="cls-5" x1="2754.18" y1="5220.51" x2="2634.09" y2="5220.51"/>
    <line class="cls-5" x1="2874.27" y1="5188.93" x2="2754.18" y2="5220.51"/>
    <line class="cls-5" x1="2994.36" y1="5192.88" x2="2874.27" y2="5188.93"/>
    <line class="cls-5" x1="3114.45" y1="5177.08" x2="2994.36" y2="5192.88"/>
    <line class="cls-5" x1="3234.54" y1="5165.24" x2="3114.45" y2="5177.08"/>
    <line class="cls-5" x1="3354.63" y1="5109.97" x2="3234.54" y2="5165.24"/>
    <line class="cls-5" x1="3474.72" y1="5117.86" x2="3354.63" y2="5109.97"/>
    <line class="cls-5" x1="3594.82" y1="5098.12" x2="3474.72" y2="5117.86"/>
    <line class="cls-5" x1="3714.91" y1="5090.23" x2="3594.82" y2="5098.12"/>
    <line class="cls-5" x1="3835" y1="5121.81" x2="3714.91" y2="5090.23"/>
    <line class="cls-5" x1="3955.09" y1="5094.18" x2="3835" y2="5121.81"/>
    <line class="cls-5" x1="4075.18" y1="5066.54" x2="3955.09" y2="5094.18"/>
    <line class="cls-5" x1="4195.27" y1="5070.49" x2="4075.18" y2="5066.54"/>
    <line class="cls-5" x1="4315.36" y1="5078.38" x2="4195.27" y2="5070.49"/>
    <line class="cls-5" x1="4435.45" y1="5058.64" x2="4315.36" y2="5078.38"/>
    <line class="cls-5" x1="4555.54" y1="5086.28" x2="4435.45" y2="5058.64"/>
    <line class="cls-5" x1="4675.63" y1="5086.28" x2="4555.54" y2="5086.28"/>
    <line class="cls-5" x1="4795.73" y1="5098.12" x2="4675.63" y2="5086.28"/>
    <line class="cls-5" x1="4915.82" y1="5090.23" x2="4795.73" y2="5098.12"/>
    <line class="cls-5" x1="5035.91" y1="5070.49" x2="4915.82" y2="5090.23"/>
    <line class="cls-5" x1="5156" y1="5086.28" x2="5035.91" y2="5070.49"/>
    <line class="cls-5" x1="5276.09" y1="5066.54" x2="5156" y2="5086.28"/>
    <line class="cls-5" x1="5396.18" y1="5082.33" x2="5276.09" y2="5066.54"/>
    <line class="cls-5" x1="5516.27" y1="5058.64" x2="5396.18" y2="5082.33"/>
    <line class="cls-5" x1="5636.36" y1="5074.44" x2="5516.27" y2="5058.64"/>
    <line class="cls-5" x1="5756.45" y1="5066.54" x2="5636.36" y2="5074.44"/>
    <line class="cls-5" x1="5876.55" y1="5082.33" x2="5756.45" y2="5066.54"/>
    <line class="cls-5" x1="5996.64" y1="5078.38" x2="5876.55" y2="5082.33"/>
    <line class="cls-5" x1="6116.73" y1="5066.54" x2="5996.64" y2="5078.38"/>
    <line class="cls-5" x1="6236.82" y1="5050.75" x2="6116.73" y2="5066.54"/>
    <line class="cls-5" x1="6356.91" y1="5046.8" x2="6236.82" y2="5050.75"/>
    <line class="cls-5" x1="6477" y1="5019.16" x2="6356.91" y2="5046.8"/>
    <line class="cls-5" x1="6597.09" y1="5023.11" x2="6477" y2="5019.16"/>
    <line class="cls-5" x1="6717.18" y1="5023.11" x2="6597.09" y2="5023.11"/>
    <line class="cls-5" x1="6837.27" y1="5019.16" x2="6717.18" y2="5023.11"/>
    <line class="cls-5" x1="6957.36" y1="5023.11" x2="6837.27" y2="5019.16"/>
    <line class="cls-5" x1="7077.46" y1="5015.22" x2="6957.36" y2="5023.11"/>
    <line class="cls-5" x1="7197.55" y1="5023.11" x2="7077.46" y2="5015.22"/>
    <line class="cls-5" x1="7317.64" y1="5015.22" x2="7197.55" y2="5023.11"/>
    <line class="cls-5" x1="7437.73" y1="5015.22" x2="7317.64" y2="5015.22"/>
    <line class="cls-5" x1="7557.82" y1="5023.11" x2="7437.73" y2="5015.22"/>
    <line class="cls-5" x1="7677.91" y1="5023.11" x2="7557.82" y2="5023.11"/>
    <line class="cls-5" x1="7798" y1="5011.27" x2="7677.91" y2="5023.11"/>
    <line class="cls-5" x1="7918.09" y1="5023.11" x2="7798" y2="5011.27"/>
    <line class="cls-5" x1="8038.18" y1="5042.85" x2="7918.09" y2="5023.11"/>
    <line class="cls-5" x1="8158.27" y1="5027.06" x2="8038.18" y2="5042.85"/>
    <line class="cls-5" x1="8278.37" y1="5038.9" x2="8158.27" y2="5027.06"/>
    <line class="cls-5" x1="8398.46" y1="5046.8" x2="8278.37" y2="5038.9"/>
    <line class="cls-5" x1="8518.55" y1="5046.8" x2="8398.46" y2="5046.8"/>
    <line class="cls-5" x1="8638.64" y1="5046.8" x2="8518.55" y2="5046.8"/>
    <line class="cls-5" x1="8758.73" y1="5046.8" x2="8638.64" y2="5046.8"/>
    <line class="cls-5" x1="8878.82" y1="5058.64" x2="8758.73" y2="5046.8"/>
    <line class="cls-5" x1="8998.91" y1="5062.59" x2="8878.82" y2="5058.64"/>
    <line class="cls-5" x1="9119" y1="5062.59" x2="8998.91" y2="5062.59"/>
    <line class="cls-5" x1="9239.09" y1="5078.38" x2="9119" y2="5062.59"/>
    <line class="cls-5" x1="9359.18" y1="5090.23" x2="9239.09" y2="5078.38"/>
    <line class="cls-5" x1="9479.28" y1="5094.18" x2="9359.18" y2="5090.23"/>
    <line class="cls-5" x1="9599.37" y1="5098.12" x2="9479.28" y2="5094.18"/>
  </g>
  <line class="cls-7" x1="779.93" y1="5394.53" x2="9666.67" y2="5394.53"/>
  <g>
    <line class="cls-7" x1="779.93" y1="5394.53" x2="779.93" y2="5340.15"/>
    <line class="cls-7" x1="900.03" y1="5394.53" x2="900.03" y2="5340.15"/>
    <line class="cls-7" x1="1020.12" y1="5394.53" x2="1020.12" y2="5340.15"/>
    <line class="cls-7" x1="1140.21" y1="5394.53" x2="1140.21" y2="5340.15"/>
    <line class="cls-7" x1="1260.3" y1="5394.53" x2="1260.3" y2="5340.15"/>
    <line class="cls-7" x1="1380.39" y1="5394.53" x2="1380.39" y2="5340.15"/>
    <line class="cls-7" x1="1500.48" y1="5394.53" x2="1500.48" y2="5340.15"/>
    <line class="cls-7" x1="1620.57" y1="5394.53" x2="1620.57" y2="5340.15"/>
    <line class="cls-7" x1="1740.66" y1="5394.53" x2="1740.66" y2="5340.15"/>
    <line class="cls-7" x1="1860.75" y1="5394.53" x2="1860.75" y2="5340.15"/>
    <line class="cls-7" x1="1980.84" y1="5394.53" x2="1980.84" y2="5340.15"/>
    <line class="cls-7" x1="2100.94" y1="5394.53" x2="2100.94" y2="5340.15"/>
    <line class="cls-7" x1="2221.03" y1="5394.53" x2="2221.03" y2="5340.15"/>
    <line class="cls-7" x1="2341.12" y1="5394.53" x2="2341.12" y2="5340.15"/>
    <line class="cls-7" x1="2461.21" y1="5394.53" x2="2461.21" y2="5340.15"/>
    <line class="cls-7" x1="2581.3" y1="5394.53" x2="2581.3" y2="5340.15"/>
    <line class="cls-7" x1="2701.39" y1="5394.53" x2="2701.39" y2="5340.15"/>
    <line class="cls-7" x1="2821.48" y1="5394.53" x2="2821.48" y2="5340.15"/>
    <line class="cls-7" x1="2941.57" y1="5394.53" x2="2941.57" y2="5340.15"/>
    <line class="cls-7" x1="3061.66" y1="5394.53" x2="3061.66" y2="5340.15"/>
    <line class="cls-7" x1="3181.75" y1="5394.53" x2="3181.75" y2="5340.15"/>
    <line class="cls-7" x1="3301.85" y1="5394.53" x2="3301.85" y2="5340.15"/>
    <line class="cls-7" x1="3421.94" y1="5394.53" x2="3421.94" y2="5340.15"/>
    <line class="cls-7" x1="3542.03" y1="5394.53" x2="3542.03" y2="5340.15"/>
    <line class="cls-7" x1="3662.12" y1="5394.53" x2="3662.12" y2="5340.15"/>
    <line class="cls-7" x1="3782.21" y1="5394.53" x2="3782.21" y2="5340.15"/>
    <line class="cls-7" x1="3902.3" y1="5394.53" x2="3902.3" y2="5340.15"/>
    <line class="cls-7" x1="4022.39" y1="5394.53" x2="4022.39" y2="5340.15"/>
    <line class="cls-7" x1="4142.48" y1="5394.53" x2="4142.48" y2="5340.15"/>
    <line class="cls-7" x1="4262.57" y1="5394.53" x2="4262.57" y2="5340.15"/>
    <line class="cls-7" x1="4382.66" y1="5394.53" x2="4382.66" y2="5340.15"/>
    <line class="cls-7" x1="4502.76" y1="5394.53" x2="4502.76" y2="5340.15"/>
    <line class="cls-7" x1="4622.85" y1="5394.53" x2="4622.85" y2="5340.15"/>
    <line class="cls-7" x1="4742.94" y1="5394.53" x2="4742.94" y2="5340.15"/>
    <line class="cls-7" x1="4863.03" y1="5394.53" x2="4863.03" y2="5340.15"/>
    <line class="cls-7" x1="4983.12" y1="5394.53" x2="4983.12" y2="5340.15"/>
    <line class="cls-7" x1="5103.21" y1="5394.53" x2="5103.21" y2="5340.15"/>
    <line class="cls-7" x1="5223.3" y1="5394.53" x2="5223.3" y2="5340.15"/>
    <line class="cls-7" x1="5343.39" y1="5394.53" x2="5343.39" y2="5340.15"/>
    <line class="cls-7" x1="5463.48" y1="5394.53" x2="5463.48" y2="5340.15"/>
    <line class="cls-7" x1="5583.57" y1="5394.53" x2="5583.57" y2="5340.15"/>
    <line class="cls-7" x1="5703.67" y1="5394.53" x2="5703.67" y2="5340.15"/>
    <line class="cls-7" x1="5823.76" y1="5394.53" x2="5823.76" y2="5340.15"/>
    <line class="cls-7" x1="5943.85" y1="5394.53" x2="5943.85" y2="5340.15"/>
    <line class="cls-7" x1="6063.94" y1="5394.53" x2="6063.94" y2="5340.15"/>
    <line class="cls-7" x1="6184.03" y1="5394.53" x2="6184.03" y2="5340.15"/>
    <line class="cls-7" x1="6304.12" y1="5394.53" x2="6304.12" y2="5340.15"/>
    <line class="cls-7" x1="6424.21" y1="5394.53" x2="6424.21" y2="5340.15"/>
    <line class="cls-7" x1="6544.3" y1="5394.53" x2="6544.3" y2="5340.15"/>
    <line class="cls-7" x1="6664.39" y1="5394.53" x2="6664.39" y2="5340.15"/>
    <line class="cls-7" x1="6784.48" y1="5394.53" x2="6784.48" y2="5340.15"/>
    <line class="cls-7" x1="6904.58" y1="5394.53" x2="6904.58" y2="5340.15"/>
    <line class="cls-7" x1="7024.67" y1="5394.53" x2="7024.67" y2="5340.15"/>
    <line class="cls-7" x1="7144.76" y1="5394.53" x2="7144.76" y2="5340.15"/>
    <line class="cls-7" x1="7264.85" y1="5394.53" x2="7264.85" y2="5340.15"/>
    <line class="cls-7" x1="7384.94" y1="5394.53" x2="7384.94" y2="5340.15"/>
    <line class="cls-7" x1="7505.03" y1="5394.53" x2="7505.03" y2="5340.15"/>
    <line class="cls-7" x1="7625.12" y1="5394.53" x2="7625.12" y2="5340.15"/>
    <line class="cls-7" x1="7745.21" y1="5394.53" x2="7745.21" y2="5340.15"/>
    <line class="cls-7" x1="7865.3" y1="5394.53" x2="7865.3" y2="5340.15"/>
    <line class="cls-7" x1="7985.39" y1="5394.53" x2="7985.39" y2="5340.15"/>
    <line class="cls-7" x1="8105.49" y1="5394.53" x2="8105.49" y2="5340.15"/>
    <line class="cls-7" x1="8225.58" y1="5394.53" x2="8225.58" y2="5340.15"/>
    <line class="cls-7" x1="8345.67" y1="5394.53" x2="8345.67" y2="5340.15"/>
    <line class="cls-7" x1="8465.76" y1="5394.53" x2="8465.76" y2="5340.15"/>
    <line class="cls-7" x1="8585.85" y1="5394.53" x2="8585.85" y2="5340.15"/>
    <line class="cls-7" x1="8705.94" y1="5394.53" x2="8705.94" y2="5340.15"/>
    <line class="cls-7" x1="8826.03" y1="5394.53" x2="8826.03" y2="5340.15"/>
    <line class="cls-7" x1="8946.12" y1="5394.53" x2="8946.12" y2="5340.15"/>
    <line class="cls-7" x1="9066.21" y1="5394.53" x2="9066.21" y2="5340.15"/>
    <line class="cls-7" x1="9186.3" y1="5394.53" x2="9186.3" y2="5340.15"/>
    <line class="cls-7" x1="9306.4" y1="5394.53" x2="9306.4" y2="5340.15"/>
    <line class="cls-7" x1="9426.49" y1="5394.53" x2="9426.49" y2="5340.15"/>
    <line class="cls-7" x1="9546.58" y1="5394.53" x2="9546.58" y2="5340.15"/>
    <line class="cls-7" x1="9666.67" y1="5394.53" x2="9666.67" y2="5340.15"/>
  </g>
  <text class="cls-9" transform="translate(213.69 4366.33)"><tspan x="0" y="0">30</tspan></text>
  <text class="cls-9" transform="translate(213.69 3181.93)"><tspan x="0" y="0">60</tspan></text>
  <text class="cls-9" transform="translate(213.69 1997.53)"><tspan x="0" y="0">90</tspan></text>
  <text class="cls-9" transform="translate(0 813.13)"><tspan x="0" y="0">120</tspan></text>
  <line class="cls-7" x1="779.93" y1="5394.53" x2="779.93" y2=".5"/>
  <line class="cls-7" x1="779.93" y1="5394.53" x2="1002.1" y2="5394.53"/>
  <line class="cls-7" x1="779.93" y1="4210.12" x2="1002.1" y2="4210.12"/>
  <line class="cls-7" x1="779.93" y1="3025.72" x2="1002.1" y2="3025.72"/>
  <line class="cls-7" x1="779.93" y1="1841.32" x2="1002.1" y2="1841.32"/>
  <line class="cls-7" x1="779.93" y1="656.91" x2="1002.1" y2="656.91"/>
  <line class="cls-7" x1="779.93" y1=".5" x2="1002.1" y2=".5"/>
  <g>
    <line class="cls-6" x1="952.66" y1="4821.77" x2="832.57" y2="4959.95"/>
    <line class="cls-6" x1="1072.75" y1="4782.29" x2="952.66" y2="4821.77"/>
    <line class="cls-6" x1="1192.84" y1="5098.13" x2="1072.75" y2="4782.29"/>
    <line class="cls-6" x1="1312.93" y1="4853.35" x2="1192.84" y2="5098.13"/>
    <line class="cls-6" x1="1433.02" y1="4529.62" x2="1312.93" y2="4853.35"/>
    <line class="cls-6" x1="1553.11" y1="4817.82" x2="1433.02" y2="4529.62"/>
    <line class="cls-6" x1="1673.2" y1="4723.07" x2="1553.11" y2="4817.82"/>
    <line class="cls-6" x1="1793.3" y1="4995.48" x2="1673.2" y2="4723.07"/>
    <line class="cls-6" x1="1913.39" y1="5188.93" x2="1793.3" y2="4995.48"/>
    <line class="cls-6" x1="2033.48" y1="5181.04" x2="1913.39" y2="5188.93"/>
    <line class="cls-6" x1="2153.57" y1="5204.73" x2="2033.48" y2="5181.04"/>
    <line class="cls-6" x1="2273.66" y1="5236.31" x2="2153.57" y2="5204.73"/>
    <line class="cls-6" x1="2393.75" y1="5228.41" x2="2273.66" y2="5236.31"/>
    <line class="cls-6" x1="2513.84" y1="644.77" x2="2393.75" y2="5228.41"/>
    <line class="cls-6" x1="2633.93" y1="1094.85" x2="2513.84" y2="644.77"/>
    <line class="cls-6" x1="2754.02" y1="1568.61" x2="2633.93" y2="1094.85"/>
    <line class="cls-6" x1="2874.11" y1="2006.84" x2="2754.02" y2="1568.61"/>
    <line class="cls-6" x1="2994.21" y1="2196.34" x2="2874.11" y2="2006.84"/>
    <line class="cls-6" x1="3114.3" y1="2393.74" x2="2994.21" y2="2196.34"/>
    <line class="cls-6" x1="3234.39" y1="2685.89" x2="3114.3" y2="2393.74"/>
    <line class="cls-6" x1="3354.48" y1="2863.55" x2="3234.39" y2="2685.89"/>
    <line class="cls-6" x1="3474.57" y1="2681.95" x2="3354.48" y2="2863.55"/>
    <line class="cls-6" x1="3594.66" y1="2527.97" x2="3474.57" y2="2681.95"/>
    <line class="cls-6" x1="3714.75" y1="2389.79" x2="3594.66" y2="2527.97"/>
    <line class="cls-6" x1="3834.84" y1="3088.59" x2="3714.75" y2="2389.79"/>
    <line class="cls-6" x1="3954.93" y1="3179.4" x2="3834.84" y2="3088.59"/>
    <line class="cls-6" x1="4075.02" y1="3451.81" x2="3954.93" y2="3179.4"/>
    <line class="cls-6" x1="4195.12" y1="3672.9" x2="4075.02" y2="3451.81"/>
    <line class="cls-6" x1="4315.21" y1="3688.69" x2="4195.12" y2="3672.9"/>
    <line class="cls-6" x1="4435.3" y1="3218.88" x2="4315.21" y2="3688.69"/>
    <line class="cls-6" x1="4555.39" y1="3534.72" x2="4435.3" y2="3218.88"/>
    <line class="cls-6" x1="4675.48" y1="3676.85" x2="4555.39" y2="3534.72"/>
    <line class="cls-6" x1="4795.57" y1="3834.77" x2="4675.48" y2="3676.85"/>
    <line class="cls-6" x1="4915.66" y1="4051.91" x2="4795.57" y2="3834.77"/>
    <line class="cls-6" x1="5035.75" y1="4000.58" x2="4915.66" y2="4051.91"/>
    <line class="cls-6" x1="5155.84" y1="4059.8" x2="5035.75" y2="4000.58"/>
    <line class="cls-6" x1="5275.94" y1="4024.27" x2="5155.84" y2="4059.8"/>
    <line class="cls-6" x1="5396.03" y1="4253.26" x2="5275.94" y2="4024.27"/>
    <line class="cls-6" x1="5516.12" y1="4253.26" x2="5396.03" y2="4253.26"/>
    <line class="cls-6" x1="5636.21" y1="4071.65" x2="5516.12" y2="4253.26"/>
    <line class="cls-6" x1="5756.3" y1="4375.64" x2="5636.21" y2="4071.65"/>
    <line class="cls-6" x1="5876.39" y1="3890.04" x2="5756.3" y2="4375.64"/>
    <line class="cls-6" x1="5996.48" y1="3151.76" x2="5876.39" y2="3890.04"/>
    <line class="cls-6" x1="6116.57" y1="2903.03" x2="5996.48" y2="3151.76"/>
    <line class="cls-6" x1="6236.66" y1="2843.81" x2="6116.57" y2="2903.03"/>
    <line class="cls-6" x1="6356.75" y1="2855.66" x2="6236.66" y2="2843.81"/>
    <line class="cls-6" x1="6476.85" y1="2828.02" x2="6356.75" y2="2855.66"/>
    <line class="cls-6" x1="6596.94" y1="2370.05" x2="6476.85" y2="2828.02"/>
    <line class="cls-6" x1="6717.03" y1="2887.24" x2="6596.94" y2="2370.05"/>
    <line class="cls-6" x1="6837.12" y1="3060.96" x2="6717.03" y2="2887.24"/>
    <line class="cls-6" x1="6957.21" y1="2930.67" x2="6837.12" y2="3060.96"/>
    <line class="cls-6" x1="7077.3" y1="2729.32" x2="6957.21" y2="2930.67"/>
    <line class="cls-6" x1="7197.39" y1="2899.09" x2="7077.3" y2="2729.32"/>
    <line class="cls-6" x1="7317.48" y1="2942.52" x2="7197.39" y2="2899.09"/>
    <line class="cls-6" x1="7437.57" y1="2993.84" x2="7317.48" y2="2942.52"/>
    <line class="cls-6" x1="7557.66" y1="3183.34" x2="7437.57" y2="2993.84"/>
    <line class="cls-6" x1="7677.76" y1="3076.75" x2="7557.66" y2="3183.34"/>
    <line class="cls-6" x1="7797.85" y1="3491.29" x2="7677.76" y2="3076.75"/>
    <line class="cls-6" x1="7917.94" y1="3708.43" x2="7797.85" y2="3491.29"/>
    <line class="cls-6" x1="8038.03" y1="3799.23" x2="7917.94" y2="3708.43"/>
    <line class="cls-6" x1="8158.12" y1="3704.48" x2="8038.03" y2="3799.23"/>
    <line class="cls-6" x1="8278.21" y1="3609.73" x2="8158.12" y2="3704.48"/>
    <line class="cls-6" x1="8398.3" y1="3459.7" x2="8278.21" y2="3609.73"/>
    <line class="cls-6" x1="8518.39" y1="3787.39" x2="8398.3" y2="3459.7"/>
    <line class="cls-6" x1="8638.48" y1="3767.65" x2="8518.39" y2="3787.39"/>
    <line class="cls-6" x1="8758.57" y1="3901.88" x2="8638.48" y2="3767.65"/>
    <line class="cls-6" x1="8878.67" y1="4063.75" x2="8758.57" y2="3901.88"/>
    <line class="cls-6" x1="8998.76" y1="3937.41" x2="8878.67" y2="4063.75"/>
    <line class="cls-6" x1="9118.85" y1="4032.17" x2="8998.76" y2="3937.41"/>
    <line class="cls-6" x1="9238.94" y1="3972.95" x2="9118.85" y2="4032.17"/>
    <line class="cls-6" x1="9359.03" y1="3929.52" x2="9238.94" y2="3972.95"/>
    <line class="cls-6" x1="9479.12" y1="3818.97" x2="9359.03" y2="3929.52"/>
    <line class="cls-6" x1="9599.21" y1="3909.78" x2="9479.12" y2="3818.97"/>
  </g>
</svg>