<?xml version="1.0" encoding="UTF-8"?>
<svg id="Layer_1" data-name="Layer 1" xmlns="http://www.w3.org/2000/svg" xmlns:xlink="http://www.w3.org/1999/xlink" viewBox="0 0 9550.5 5335.96">
  <defs>
    <style>
      .cls-1 {
        fill: url(#linear-gradient);
      }

      .cls-1, .cls-2, .cls-3 {
        stroke-width: 0px;
      }

      .cls-4 {
        fill: #231f20;
        font-family: MyriadPro-Regular, 'Myriad Pro';
        font-size: 411.54px;
      }

      .cls-5 {
        stroke: #8e324d;
        stroke-linecap: round;
        stroke-width: 2px;
      }

      .cls-5, .cls-6 {
        fill: none;
        stroke-miterlimit: 10;
      }

      .cls-6 {
        stroke: #000;
      }

      .cls-7 {
        opacity: .9;
      }

      .cls-2 {
        fill: #e0f3fc;
      }

      .cls-3 {
        fill: #bcc9ce;
      }
    </style>
    <linearGradient id="linear-gradient" x1="5156.6" y1="636.5" x2="5156.6" y2="5335.96" gradientUnits="userSpaceOnUse">
      <stop offset="0" stop-color="#8e324d"/>
      <stop offset=".57" stop-color="#974b5c"/>
      <stop offset="1" stop-color="#e0f3fc"/>
    </linearGradient>
  </defs>
  <rect class="cls-2" x="770.52" y="0" width="8779.48" height="5328.93"/>
  <rect class="cls-3" x="770.52" y="4140.08" width="8779.48" height="37.48"/>
  <rect class="cls-3" x="770.52" y="2967.49" width="8779.48" height="37.48"/>
  <rect class="cls-3" x="770.52" y="1799.86" width="8779.48" height="37.48"/>
  <rect class="cls-3" x="763.19" y="632.23" width="8779.48" height="37.48"/>
  <g class="cls-7">
    <polygon class="cls-1" points="9127.43 3924.5 9008.79 3983.01 8890.15 3889.4 8771.51 4014.21 8652.87 3854.3 8534.22 3721.69 8415.58 3741.19 8296.94 3417.46 8178.3 3565.67 8059.66 3659.28 7941.02 3752.89 7822.37 3663.18 7703.73 3448.66 7585.09 3039.12 7466.45 3144.43 7347.81 2957.21 7229.16 2906.51 7110.52 2863.6 6991.88 2695.89 6873.24 2894.81 6754.6 3023.52 6635.96 2851.9 6517.31 2340.96 6398.67 2793.4 6280.03 2820.7 6161.39 2809 6042.75 2867.51 5924.11 3113.23 5805.46 3842.6 5686.82 4322.34 5568.18 4022.01 5449.54 4201.43 5330.9 4201.43 5212.26 3975.21 5093.61 4010.31 4974.97 3951.81 4856.33 4002.51 4737.69 3787.99 4619.05 3631.98 4500.41 3491.56 4381.76 3179.53 4263.12 3643.68 4144.48 3628.08 4025.84 3409.66 3907.2 3140.53 3788.56 3050.82 3669.91 2360.46 3551.27 2496.97 3432.63 2649.08 3313.99 2828.5 3195.35 2652.99 3076.71 2364.36 2958.06 2169.34 2839.42 1982.12 2720.78 1549.18 2602.14 1081.14 2483.5 636.5 2364.86 5164.82 2246.21 5172.62 2127.57 5141.42 2008.93 5118.02 1890.29 5125.82 1771.65 4934.7 1653.01 4665.57 1534.36 4759.18 1415.72 4474.46 1297.08 4794.29 1178.44 5036.11 1059.8 4724.08 941.16 4763.08 822.51 4899.6 763.19 5335.96 9550 5335.96 9483.36 3862.1 9364.72 3772.39 9246.07 3881.6 9127.43 3924.5"/>
  </g>
  <line class="cls-6" x1="770.52" y1="5328.93" x2="9550" y2="5328.93"/>
  <g>
    <line class="cls-6" x1="770.52" y1="5328.93" x2="770.52" y2="5275.21"/>
    <line class="cls-6" x1="889.16" y1="5328.93" x2="889.16" y2="5275.21"/>
    <line class="cls-6" x1="1007.8" y1="5328.93" x2="1007.8" y2="5275.21"/>
    <line class="cls-6" x1="1126.44" y1="5328.93" x2="1126.44" y2="5275.21"/>
    <line class="cls-6" x1="1245.08" y1="5328.93" x2="1245.08" y2="5275.21"/>
    <line class="cls-6" x1="1363.72" y1="5328.93" x2="1363.72" y2="5275.21"/>
    <line class="cls-6" x1="1482.37" y1="5328.93" x2="1482.37" y2="5275.21"/>
    <line class="cls-6" x1="1601.01" y1="5328.93" x2="1601.01" y2="5275.21"/>
    <line class="cls-6" x1="1719.65" y1="5328.93" x2="1719.65" y2="5275.21"/>
    <line class="cls-6" x1="1838.29" y1="5328.93" x2="1838.29" y2="5275.21"/>
    <line class="cls-6" x1="1956.93" y1="5328.93" x2="1956.93" y2="5275.21"/>
    <line class="cls-6" x1="2075.57" y1="5328.93" x2="2075.57" y2="5275.21"/>
    <line class="cls-6" x1="2194.22" y1="5328.93" x2="2194.22" y2="5275.21"/>
    <line class="cls-6" x1="2312.86" y1="5328.93" x2="2312.86" y2="5275.21"/>
    <line class="cls-6" x1="2431.5" y1="5328.93" x2="2431.5" y2="5275.21"/>
    <line class="cls-6" x1="2550.14" y1="5328.93" x2="2550.14" y2="5275.21"/>
    <line class="cls-6" x1="2668.78" y1="5328.93" x2="2668.78" y2="5275.21"/>
    <line class="cls-6" x1="2787.42" y1="5328.93" x2="2787.42" y2="5275.21"/>
    <line class="cls-6" x1="2906.07" y1="5328.93" x2="2906.07" y2="5275.21"/>
    <line class="cls-6" x1="3024.71" y1="5328.93" x2="3024.71" y2="5275.21"/>
    <line class="cls-6" x1="3143.35" y1="5328.93" x2="3143.35" y2="5275.21"/>
    <line class="cls-6" x1="3261.99" y1="5328.93" x2="3261.99" y2="5275.21"/>
    <line class="cls-6" x1="3380.63" y1="5328.93" x2="3380.63" y2="5275.21"/>
    <line class="cls-6" x1="3499.27" y1="5328.93" x2="3499.27" y2="5275.21"/>
    <line class="cls-6" x1="3617.92" y1="5328.93" x2="3617.92" y2="5275.21"/>
    <line class="cls-6" x1="3736.56" y1="5328.93" x2="3736.56" y2="5275.21"/>
    <line class="cls-6" x1="3855.2" y1="5328.93" x2="3855.2" y2="5275.21"/>
    <line class="cls-6" x1="3973.84" y1="5328.93" x2="3973.84" y2="5275.21"/>
    <line class="cls-6" x1="4092.48" y1="5328.93" x2="4092.48" y2="5275.21"/>
    <line class="cls-6" x1="4211.12" y1="5328.93" x2="4211.12" y2="5275.21"/>
    <line class="cls-6" x1="4329.77" y1="5328.93" x2="4329.77" y2="5275.21"/>
    <line class="cls-6" x1="4448.41" y1="5328.93" x2="4448.41" y2="5275.21"/>
    <line class="cls-6" x1="4567.05" y1="5328.93" x2="4567.05" y2="5275.21"/>
    <line class="cls-6" x1="4685.69" y1="5328.93" x2="4685.69" y2="5275.21"/>
    <line class="cls-6" x1="4804.33" y1="5328.93" x2="4804.33" y2="5275.21"/>
    <line class="cls-6" x1="4922.97" y1="5328.93" x2="4922.97" y2="5275.21"/>
    <line class="cls-6" x1="5041.62" y1="5328.93" x2="5041.62" y2="5275.21"/>
    <line class="cls-6" x1="5160.26" y1="5328.93" x2="5160.26" y2="5275.21"/>
    <line class="cls-6" x1="5278.9" y1="5328.93" x2="5278.9" y2="5275.21"/>
    <line class="cls-6" x1="5397.54" y1="5328.93" x2="5397.54" y2="5275.21"/>
    <line class="cls-6" x1="5516.18" y1="5328.93" x2="5516.18" y2="5275.21"/>
    <line class="cls-6" x1="5634.82" y1="5328.93" x2="5634.82" y2="5275.21"/>
    <line class="cls-6" x1="5753.47" y1="5328.93" x2="5753.47" y2="5275.21"/>
    <line class="cls-6" x1="5872.11" y1="5328.93" x2="5872.11" y2="5275.21"/>
    <line class="cls-6" x1="5990.75" y1="5328.93" x2="5990.75" y2="5275.21"/>
    <line class="cls-6" x1="6109.39" y1="5328.93" x2="6109.39" y2="5275.21"/>
    <line class="cls-6" x1="6228.03" y1="5328.93" x2="6228.03" y2="5275.21"/>
    <line class="cls-6" x1="6346.67" y1="5328.93" x2="6346.67" y2="5275.21"/>
    <line class="cls-6" x1="6465.32" y1="5328.93" x2="6465.32" y2="5275.21"/>
    <line class="cls-6" x1="6583.96" y1="5328.93" x2="6583.96" y2="5275.21"/>
    <line class="cls-6" x1="6702.6" y1="5328.93" x2="6702.6" y2="5275.21"/>
    <line class="cls-6" x1="6821.24" y1="5328.93" x2="6821.24" y2="5275.21"/>
    <line class="cls-6" x1="6939.88" y1="5328.93" x2="6939.88" y2="5275.21"/>
    <line class="cls-6" x1="7058.52" y1="5328.93" x2="7058.52" y2="5275.21"/>
    <line class="cls-6" x1="7177.17" y1="5328.93" x2="7177.17" y2="5275.21"/>
    <line class="cls-6" x1="7295.81" y1="5328.93" x2="7295.81" y2="5275.21"/>
    <line class="cls-6" x1="7414.45" y1="5328.93" x2="7414.45" y2="5275.21"/>
    <line class="cls-6" x1="7533.09" y1="5328.93" x2="7533.09" y2="5275.21"/>
    <line class="cls-6" x1="7651.73" y1="5328.93" x2="7651.73" y2="5275.21"/>
    <line class="cls-6" x1="7770.37" y1="5328.93" x2="7770.37" y2="5275.21"/>
    <line class="cls-6" x1="7889.02" y1="5328.93" x2="7889.02" y2="5275.21"/>
    <line class="cls-6" x1="8007.66" y1="5328.93" x2="8007.66" y2="5275.21"/>
    <line class="cls-6" x1="8126.3" y1="5328.93" x2="8126.3" y2="5275.21"/>
    <line class="cls-6" x1="8244.94" y1="5328.93" x2="8244.94" y2="5275.21"/>
    <line class="cls-6" x1="8363.58" y1="5328.93" x2="8363.58" y2="5275.21"/>
    <line class="cls-6" x1="8482.22" y1="5328.93" x2="8482.22" y2="5275.21"/>
    <line class="cls-6" x1="8600.87" y1="5328.93" x2="8600.87" y2="5275.21"/>
    <line class="cls-6" x1="8719.51" y1="5328.93" x2="8719.51" y2="5275.21"/>
    <line class="cls-6" x1="8838.15" y1="5328.93" x2="8838.15" y2="5275.21"/>
    <line class="cls-6" x1="8956.79" y1="5328.93" x2="8956.79" y2="5275.21"/>
    <line class="cls-6" x1="9075.43" y1="5328.93" x2="9075.43" y2="5275.21"/>
    <line class="cls-6" x1="9194.07" y1="5328.93" x2="9194.07" y2="5275.21"/>
    <line class="cls-6" x1="9312.72" y1="5328.93" x2="9312.72" y2="5275.21"/>
    <line class="cls-6" x1="9431.36" y1="5328.93" x2="9431.36" y2="5275.21"/>
    <line class="cls-6" x1="9550" y1="5328.93" x2="9550" y2="5275.21"/>
  </g>
  <text class="cls-4" transform="translate(211.11 4313.14)"><tspan x="0" y="0">30</tspan></text>
  <text class="cls-4" transform="translate(211.11 3143.04)"><tspan x="0" y="0">60</tspan></text>
  <text class="cls-4" transform="translate(211.11 1972.93)"><tspan x="0" y="0">90</tspan></text>
  <text class="cls-4" transform="translate(0 802.82)"><tspan x="0" y="0">120</tspan></text>
  <line class="cls-6" x1="770.52" y1="5328.93" x2="770.52"/>
  <line class="cls-6" x1="770.52" y1="5328.93" x2="990" y2="5328.93"/>
  <line class="cls-6" x1="770.52" y1="4158.82" x2="990" y2="4158.82"/>
  <line class="cls-6" x1="770.52" y1="2988.71" x2="990" y2="2988.71"/>
  <line class="cls-6" x1="770.52" y1="1818.6" x2="990" y2="1818.6"/>
  <line class="cls-6" x1="770.52" y1="648.49" x2="990" y2="648.49"/>
  <g>
    <line class="cls-5" x1="941.16" y1="4763.08" x2="822.51" y2="4899.6"/>
    <line class="cls-5" x1="1059.8" y1="4724.08" x2="941.16" y2="4763.08"/>
    <line class="cls-5" x1="1178.44" y1="5036.11" x2="1059.8" y2="4724.08"/>
    <line class="cls-5" x1="1297.08" y1="4794.29" x2="1178.44" y2="5036.11"/>
    <line class="cls-5" x1="1415.72" y1="4474.46" x2="1297.08" y2="4794.29"/>
    <line class="cls-5" x1="1534.36" y1="4759.18" x2="1415.72" y2="4474.46"/>
    <line class="cls-5" x1="1653.01" y1="4665.57" x2="1534.36" y2="4759.18"/>
    <line class="cls-5" x1="1771.65" y1="4934.7" x2="1653.01" y2="4665.57"/>
    <line class="cls-5" x1="1890.29" y1="5125.82" x2="1771.65" y2="4934.7"/>
    <line class="cls-5" x1="2008.93" y1="5118.02" x2="1890.29" y2="5125.82"/>
    <line class="cls-5" x1="2127.57" y1="5141.42" x2="2008.93" y2="5118.02"/>
    <line class="cls-5" x1="2246.21" y1="5172.62" x2="2127.57" y2="5141.42"/>
    <line class="cls-5" x1="2364.86" y1="5164.82" x2="2246.21" y2="5172.62"/>
    <line class="cls-5" x1="2483.5" y1="636.5" x2="2364.86" y2="5164.82"/>
    <line class="cls-5" x1="2602.14" y1="1081.14" x2="2483.5" y2="636.5"/>
    <line class="cls-5" x1="2720.78" y1="1549.18" x2="2602.14" y2="1081.14"/>
    <line class="cls-5" x1="2839.42" y1="1982.12" x2="2720.78" y2="1549.18"/>
    <line class="cls-5" x1="2958.06" y1="2169.34" x2="2839.42" y2="1982.12"/>
    <line class="cls-5" x1="3076.71" y1="2364.36" x2="2958.06" y2="2169.34"/>
    <line class="cls-5" x1="3195.35" y1="2652.99" x2="3076.71" y2="2364.36"/>
    <line class="cls-5" x1="3313.99" y1="2828.5" x2="3195.35" y2="2652.99"/>
    <line class="cls-5" x1="3432.63" y1="2649.08" x2="3313.99" y2="2828.5"/>
    <line class="cls-5" x1="3551.27" y1="2496.97" x2="3432.63" y2="2649.08"/>
    <line class="cls-5" x1="3669.91" y1="2360.46" x2="3551.27" y2="2496.97"/>
    <line class="cls-5" x1="3788.56" y1="3050.82" x2="3669.91" y2="2360.46"/>
    <line class="cls-5" x1="3907.2" y1="3140.53" x2="3788.56" y2="3050.82"/>
    <line class="cls-5" x1="4025.84" y1="3409.66" x2="3907.2" y2="3140.53"/>
    <line class="cls-5" x1="4144.48" y1="3628.08" x2="4025.84" y2="3409.66"/>
    <line class="cls-5" x1="4263.12" y1="3643.68" x2="4144.48" y2="3628.08"/>
    <line class="cls-5" x1="4381.76" y1="3179.53" x2="4263.12" y2="3643.68"/>
    <line class="cls-5" x1="4500.41" y1="3491.56" x2="4381.76" y2="3179.53"/>
    <line class="cls-5" x1="4619.05" y1="3631.98" x2="4500.41" y2="3491.56"/>
    <line class="cls-5" x1="4737.69" y1="3787.99" x2="4619.05" y2="3631.98"/>
    <line class="cls-5" x1="4856.33" y1="4002.51" x2="4737.69" y2="3787.99"/>
    <line class="cls-5" x1="4974.97" y1="3951.81" x2="4856.33" y2="4002.51"/>
    <line class="cls-5" x1="5093.61" y1="4010.31" x2="4974.97" y2="3951.81"/>
    <line class="cls-5" x1="5212.26" y1="3975.21" x2="5093.61" y2="4010.31"/>
    <line class="cls-5" x1="5330.9" y1="4201.43" x2="5212.26" y2="3975.21"/>
    <line class="cls-5" x1="5449.54" y1="4201.43" x2="5330.9" y2="4201.43"/>
    <line class="cls-5" x1="5568.18" y1="4022.01" x2="5449.54" y2="4201.43"/>
    <line class="cls-5" x1="5686.82" y1="4322.34" x2="5568.18" y2="4022.01"/>
    <line class="cls-5" x1="5805.46" y1="3842.6" x2="5686.82" y2="4322.34"/>
    <line class="cls-5" x1="5924.11" y1="3113.23" x2="5805.46" y2="3842.6"/>
    <line class="cls-5" x1="6042.75" y1="2867.51" x2="5924.11" y2="3113.23"/>
    <line class="cls-5" x1="6161.39" y1="2809" x2="6042.75" y2="2867.51"/>
    <line class="cls-5" x1="6280.03" y1="2820.7" x2="6161.39" y2="2809"/>
    <line class="cls-5" x1="6398.67" y1="2793.4" x2="6280.03" y2="2820.7"/>
    <line class="cls-5" x1="6517.31" y1="2340.96" x2="6398.67" y2="2793.4"/>
    <line class="cls-5" x1="6635.96" y1="2851.9" x2="6517.31" y2="2340.96"/>
    <line class="cls-5" x1="6754.6" y1="3023.52" x2="6635.96" y2="2851.9"/>
    <line class="cls-5" x1="6873.24" y1="2894.81" x2="6754.6" y2="3023.52"/>
    <line class="cls-5" x1="6991.88" y1="2695.89" x2="6873.24" y2="2894.81"/>
    <line class="cls-5" x1="7110.52" y1="2863.6" x2="6991.88" y2="2695.89"/>
    <line class="cls-5" x1="7229.16" y1="2906.51" x2="7110.52" y2="2863.6"/>
    <line class="cls-5" x1="7347.81" y1="2957.21" x2="7229.16" y2="2906.51"/>
    <line class="cls-5" x1="7466.45" y1="3144.43" x2="7347.81" y2="2957.21"/>
    <line class="cls-5" x1="7585.09" y1="3039.12" x2="7466.45" y2="3144.43"/>
    <line class="cls-5" x1="7703.73" y1="3448.66" x2="7585.09" y2="3039.12"/>
    <line class="cls-5" x1="7822.37" y1="3663.18" x2="7703.73" y2="3448.66"/>
    <line class="cls-5" x1="7941.02" y1="3752.89" x2="7822.37" y2="3663.18"/>
    <line class="cls-5" x1="8059.66" y1="3659.28" x2="7941.02" y2="3752.89"/>
    <line class="cls-5" x1="8178.3" y1="3565.67" x2="8059.66" y2="3659.28"/>
    <line class="cls-5" x1="8296.94" y1="3417.46" x2="8178.3" y2="3565.67"/>
    <line class="cls-5" x1="8415.58" y1="3741.19" x2="8296.94" y2="3417.46"/>
    <line class="cls-5" x1="8534.22" y1="3721.69" x2="8415.58" y2="3741.19"/>
    <line class="cls-5" x1="8652.87" y1="3854.3" x2="8534.22" y2="3721.69"/>
    <line class="cls-5" x1="8771.51" y1="4014.21" x2="8652.87" y2="3854.3"/>
    <line class="cls-5" x1="8890.15" y1="3889.4" x2="8771.51" y2="4014.21"/>
    <line class="cls-5" x1="9008.79" y1="3983.01" x2="8890.15" y2="3889.4"/>
    <line class="cls-5" x1="9127.43" y1="3924.5" x2="9008.79" y2="3983.01"/>
    <line class="cls-5" x1="9246.07" y1="3881.6" x2="9127.43" y2="3924.5"/>
    <line class="cls-5" x1="9364.72" y1="3772.39" x2="9246.07" y2="3881.6"/>
    <line class="cls-5" x1="9483.36" y1="3862.1" x2="9364.72" y2="3772.39"/>
  </g>
  <g>
    <line class="cls-6" x1="770.52" y1="5328.93" x2="770.52" y2="5182.67"/>
    <line class="cls-6" x1="889.16" y1="5328.93" x2="889.16" y2="5182.67"/>
    <line class="cls-6" x1="1007.8" y1="5328.93" x2="1007.8" y2="5182.67"/>
    <line class="cls-6" x1="1126.44" y1="5328.93" x2="1126.44" y2="5182.67"/>
    <line class="cls-6" x1="1245.08" y1="5328.93" x2="1245.08" y2="5182.67"/>
    <line class="cls-6" x1="1363.72" y1="5328.93" x2="1363.72" y2="5182.67"/>
    <line class="cls-6" x1="1482.37" y1="5328.93" x2="1482.37" y2="5182.67"/>
    <line class="cls-6" x1="1601.01" y1="5328.93" x2="1601.01" y2="5182.67"/>
    <line class="cls-6" x1="1719.65" y1="5328.93" x2="1719.65" y2="5182.67"/>
    <line class="cls-6" x1="1838.29" y1="5328.93" x2="1838.29" y2="5182.67"/>
    <line class="cls-6" x1="1956.93" y1="5328.93" x2="1956.93" y2="5182.67"/>
    <line class="cls-6" x1="2075.57" y1="5328.93" x2="2075.57" y2="5182.67"/>
    <line class="cls-6" x1="2194.22" y1="5328.93" x2="2194.22" y2="5182.67"/>
    <line class="cls-6" x1="2312.86" y1="5328.93" x2="2312.86" y2="5182.67"/>
    <line class="cls-6" x1="2431.5" y1="5328.93" x2="2431.5" y2="5182.67"/>
    <line class="cls-6" x1="2550.14" y1="5328.93" x2="2550.14" y2="5182.67"/>
    <line class="cls-6" x1="2668.78" y1="5328.93" x2="2668.78" y2="5182.67"/>
    <line class="cls-6" x1="2787.42" y1="5328.93" x2="2787.42" y2="5182.67"/>
    <line class="cls-6" x1="2906.07" y1="5328.93" x2="2906.07" y2="5182.67"/>
    <line class="cls-6" x1="3024.71" y1="5328.93" x2="3024.71" y2="5182.67"/>
    <line class="cls-6" x1="3143.35" y1="5328.93" x2="3143.35" y2="5182.67"/>
    <line class="cls-6" x1="3261.99" y1="5328.93" x2="3261.99" y2="5182.67"/>
    <line class="cls-6" x1="3380.63" y1="5328.93" x2="3380.63" y2="5182.67"/>
    <line class="cls-6" x1="3499.27" y1="5328.93" x2="3499.27" y2="5182.67"/>
    <line class="cls-6" x1="3617.92" y1="5328.93" x2="3617.92" y2="5182.67"/>
    <line class="cls-6" x1="3736.56" y1="5328.93" x2="3736.56" y2="5182.67"/>
    <line class="cls-6" x1="3855.2" y1="5328.93" x2="3855.2" y2="5182.67"/>
    <line class="cls-6" x1="3973.84" y1="5328.93" x2="3973.84" y2="5182.67"/>
    <line class="cls-6" x1="4092.48" y1="5328.93" x2="4092.48" y2="5182.67"/>
    <line class="cls-6" x1="4211.12" y1="5328.93" x2="4211.12" y2="5182.67"/>
    <line class="cls-6" x1="4329.77" y1="5328.93" x2="4329.77" y2="5182.67"/>
    <line class="cls-6" x1="4448.41" y1="5328.93" x2="4448.41" y2="5182.67"/>
    <line class="cls-6" x1="4567.05" y1="5328.93" x2="4567.05" y2="5182.67"/>
    <line class="cls-6" x1="4685.69" y1="5328.93" x2="4685.69" y2="5182.67"/>
    <line class="cls-6" x1="4804.33" y1="5328.93" x2="4804.33" y2="5182.67"/>
    <line class="cls-6" x1="4922.97" y1="5328.93" x2="4922.97" y2="5182.67"/>
    <line class="cls-6" x1="5041.62" y1="5328.93" x2="5041.62" y2="5182.67"/>
    <line class="cls-6" x1="5160.26" y1="5328.93" x2="5160.26" y2="5182.67"/>
    <line class="cls-6" x1="5278.9" y1="5328.93" x2="5278.9" y2="5182.67"/>
    <line class="cls-6" x1="5397.54" y1="5328.93" x2="5397.54" y2="5182.67"/>
    <line class="cls-6" x1="5516.18" y1="5328.93" x2="5516.18" y2="5182.67"/>
    <line class="cls-6" x1="5634.82" y1="5328.93" x2="5634.82" y2="5182.67"/>
    <line class="cls-6" x1="5753.47" y1="5328.93" x2="5753.47" y2="5182.67"/>
    <line class="cls-6" x1="5872.11" y1="5328.93" x2="5872.11" y2="5182.67"/>
    <line class="cls-6" x1="5990.75" y1="5328.93" x2="5990.75" y2="5182.67"/>
    <line class="cls-6" x1="6109.39" y1="5328.93" x2="6109.39" y2="5182.67"/>
    <line class="cls-6" x1="6228.03" y1="5328.93" x2="6228.03" y2="5182.67"/>
    <line class="cls-6" x1="6346.67" y1="5328.93" x2="6346.67" y2="5182.67"/>
    <line class="cls-6" x1="6465.32" y1="5328.93" x2="6465.32" y2="5182.67"/>
    <line class="cls-6" x1="6583.96" y1="5328.93" x2="6583.96" y2="5182.67"/>
    <line class="cls-6" x1="6702.6" y1="5328.93" x2="6702.6" y2="5182.67"/>
    <line class="cls-6" x1="6821.24" y1="5328.93" x2="6821.24" y2="5182.67"/>
    <line class="cls-6" x1="6939.88" y1="5328.93" x2="6939.88" y2="5182.67"/>
    <line class="cls-6" x1="7058.52" y1="5328.93" x2="7058.52" y2="5182.67"/>
    <line class="cls-6" x1="7177.17" y1="5328.93" x2="7177.17" y2="5182.67"/>
    <line class="cls-6" x1="7295.81" y1="5328.93" x2="7295.81" y2="5182.67"/>
    <line class="cls-6" x1="7414.45" y1="5328.93" x2="7414.45" y2="5182.67"/>
    <line class="cls-6" x1="7533.09" y1="5328.93" x2="7533.09" y2="5182.67"/>
    <line class="cls-6" x1="7651.73" y1="5328.93" x2="7651.73" y2="5182.67"/>
    <line class="cls-6" x1="7770.37" y1="5328.93" x2="7770.37" y2="5182.67"/>
    <line class="cls-6" x1="7889.02" y1="5328.93" x2="7889.02" y2="5182.67"/>
    <line class="cls-6" x1="8007.66" y1="5328.93" x2="8007.66" y2="5182.67"/>
    <line class="cls-6" x1="8126.3" y1="5328.93" x2="8126.3" y2="5182.67"/>
    <line class="cls-6" x1="8244.94" y1="5328.93" x2="8244.94" y2="5182.67"/>
    <line class="cls-6" x1="8363.58" y1="5328.93" x2="8363.58" y2="5182.67"/>
    <line class="cls-6" x1="8482.22" y1="5328.93" x2="8482.22" y2="5182.67"/>
    <line class="cls-6" x1="8600.87" y1="5328.93" x2="8600.87" y2="5182.67"/>
    <line class="cls-6" x1="8719.51" y1="5328.93" x2="8719.51" y2="5182.67"/>
    <line class="cls-6" x1="8838.15" y1="5328.93" x2="8838.15" y2="5182.67"/>
    <line class="cls-6" x1="8956.79" y1="5328.93" x2="8956.79" y2="5182.67"/>
    <line class="cls-6" x1="9075.43" y1="5328.93" x2="9075.43" y2="5182.67"/>
    <line class="cls-6" x1="9194.07" y1="5328.93" x2="9194.07" y2="5182.67"/>
    <line class="cls-6" x1="9312.72" y1="5328.93" x2="9312.72" y2="5182.67"/>
    <line class="cls-6" x1="9431.36" y1="5328.93" x2="9431.36" y2="5182.67"/>
    <line class="cls-6" x1="9550" y1="5328.93" x2="9550" y2="5182.67"/>
  </g>
</svg>